<?xml version="1.0" encoding="utf-8"?>
<!-- Generator: Adobe Illustrator 24.0.0, SVG Export Plug-In . SVG Version: 6.00 Build 0)  -->
<svg version="1.1" id="图层_1" xmlns="http://www.w3.org/2000/svg" xmlns:xlink="http://www.w3.org/1999/xlink" x="0px" y="0px"
	 viewBox="0 0 612 792" style="enable-background:new 0 0 612 792;" xml:space="preserve">
<style type="text/css">
	.st0{fill:#FFFFFF;}
	.st1{fill:#969696;}
	.st2{fill:#6F6F6F;}
	.st3{fill:#BEBEBE;}
	.st4{fill:#F1F1F1;}
	.st5{fill:#595757;}
	.st6{fill:#5C5A5A;}
	.st7{fill:#F8F8F8;}
</style>
<g>
	<path class="st0" d="M210.1,95.3c0-19,0-37.8,0-56.8c0-4.4,0.4-7.1,4.3-6c4.1,0.6,9.7-2.1,12,1.2c2.4,3.3,0.8,10.8,0.8,16.1
		c0,34,0,68.2,0,102.2c0,4.8,0.8,6.5,4.3,6c3.5-0.6,7.1,0,11.2,0c6.9,0,10.4-4.8,10.4-14.6c0-23.2,0-45.9,0-69.1
		c0-4.8-1.5-11.9,0.8-14.6c2-2.7,7.1,0,10.8-1.2c4.8-1.2,5.6,1.5,5.6,7.5c-0.4,24.4,0,48,0,72.4c0,19.4-7.6,29.8-22.4,29.8
		c-20,0-39.6,0-59.7,0c-12.7,0-20.9-10.8-20.9-28c0-25.3,0-50.3,0-75.7c0-4.8,1.3-6.5,4.3-6c3.2,0.6,6,0.6,9.2,0
		c3.2-0.6,3.6,1.2,3.6,4.8c0,26.5,0,53,0,79.5c0,10.8,3.2,15.2,10.8,15.2c3.6,0,7.1,0,11.2,0c2.8,0,4.1-1.2,3.6-4.8
		C210.1,133.7,210.1,114.3,210.1,95.3z"/>
	<path class="st0" d="M117.2,140.6c9.2,6.5,17.2,10.2,25.6,14.6c2.8,1.5,3.6,2.7,2,6.5c-2.4,4.8-3.6,12.5-6.4,14.6
		c-3.2,1.5-7.6-3.8-11.6-6.5c-6.4-3.8-12.5-8.6-18.3-14c-2-1.5-3.6-1.5-5.6,0c-9.9,8.1-20.9,13.4-32.4,17.3c-2,0.6-4.1,1.5-5.6-1.5
		c-2-3.8-2.4-5.4,1.5-7.5c9.9-5.4,19.6-11.9,28.9-20.5c-6.4-8.1-11.6-16.7-16.4-25.9c-2.4-4.8,0.4-6.5,2-9.2c2-3.3,3.2,0.6,4.1,1.5
		c6,6.5,11.6,13.4,18.1,19c1.5,1.5,2.8,2.7,4.3,0c6.4-9.8,11.6-20.5,13.6-33.4c0.4-3.3,0.4-4.4-2.4-4.4c-12.7,0-26.1,0-38.8,0
		c-3.2,0-3.6,2.7-4.1,5.4c-6.4,23.8-16,44.9-30,61.6c-1.3,1.2-2.4,4.8-4.1,2.7c-1.7-2.1-4.1-4.8-1.5-9.8
		c12-24.4,19.2-51.3,23.7-79.5c2.4-14,2.4-14-8.4-14c-4.8,0-9.7,0-14.4,0c-3.6,0-2.8-2.7-2.8-5.4c0-3.3-0.4-5.4,3.2-4.8
		c7.1,0.6,14.4,0,21.6,0c3.2,0,4.3-1.5,4.3-5.4s0.4-7.5,0.4-10.8c0-3.8,0.8-4.4,3.2-4.4c1.5,0,3.2,0,4.8,0c9.7,0,9.9,0,8.8,13.1
		c-0.8,6.5,0.4,7.5,5.2,7.5c17.6-0.6,35.6,0,53.2,0c2.8,0,6-2.1,6,5.4c0,7.1-3.2,4.8-5.6,4.8c-18.3,0-37.3,0-55.6,0
		c-3.2,0-4.8,0.6-4.8,5.4c0,2.7-0.4,4.8-0.8,7.5c-1.5,10.8-1.5,10.8,6.9,10.8c15.5,0,31.2,0,46.8,0c3.6,0,4.3,1.5,4.1,6
		c-1.5,20-8.4,36.7-18.8,50.9C120.2,139.1,118.9,139.7,117.2,140.6z"/>
	<path class="st0" d="M344.7,96.8c-2.8,1.2-1.5,3.8-1.3,5.4c0.8,6.5-1.3,11.3-4.8,15.7c-3.2,3.3-5.6,7.5-8.4,11.3
		c-1.3,1.5-1.5,3.3-1.3,5.4c0.8,2.1,2.4,1.2,3.2,1.2c2.4,0,4.3,0.6,6.9,0c4.1-1.2,4.8,2.1,4.3,6.5c0,3.3-0.8,4.4-3.2,3.8
		c-0.4,0-0.8,0-0.8,0c-6.4-1.2-10.8,0-12.7,10.2c-2,9.8-8.8,14-16.4,15.2c-2,0-4.1,0-6.4,0c-2,0-4.8,1.2-4.3-3.8
		c0-3.8-0.4-7.1,4.1-6.5c2.4,0.6,4.8-1.5,6.4-4.8c1.5-2.7,2.8-6,1.5-9.2c-0.8-2.7-3.6-1.2-5.2-1.2c-5.2,0-10.4-0.6-15.3,0
		c-3.6,0.6-2.8-2.7-2.8-5.4s-0.4-5.4,3.2-5.4c6,0.6,12,0,17.6,0c1.3,0,3.6,0.6,2.8-2.7c-2.4-12.5,4.8-18.4,9.9-25.3
		c0-0.6,0.4-0.6,0.4-1.2c-5.2-1.5-5.2-1.5-9.2,2.7c-5.6,6.5-11.6,13.1-17.2,19.4c-0.8,1.2-2.4,4.4-3.6,0.6c-0.8-2.1-4.1-4.8-1.3-8.1
		c4.1-4.4,7.6-9.2,11.6-13.4c-0.4-0.6-0.8-1.5-0.8-2.1c-3.6,0-7.1-0.6-10.8,0c-3.2,0.6-2.8-2.1-2.8-4.8c0-2.1-1.3-6,2.4-5.4
		c4.1,0.6,8-0.6,12,0c4.8,0.6,8.8-1.2,11.2-7.1c0.8-1.5,2-3.3,3.2-4.8c-0.8-2.1-2.4-1.2-3.6-1.2c-6.9,0-13.6-0.6-20.9,0
		c-4.1,0.6-5.2-1.5-4.8-7.1c0-2.7,0.8-3.8,2.8-3.8c4.1,0,8,0,12,0c2,0,3.2-0.6,2.8-3.3v-0.6c0.4-13.1,0.4-13.4-9.2-13.4
		c-3.2,0-4.3-1.2-4.3-5.4c0-4.8,1.5-5.4,4.3-4.8c0.8,0,2,0,2.8,0c6.4,0,6.4,0,6.4-8.6c0-3.8,0.8-4.8,3.6-4.8c1.5,0,3.6,0,5.2,0
		c7.6,0,7.6,0,8.4,9.8c0,1.5-0.4,3.8,1.3,3.3c5.2-1.5,10.4,3.3,15.5-4.4c2.4-3.8,7.1,4.8,10.8,7.1c2.4,1.5,0.4,3.3,0,4.4
		c-2.8,6-6,11.3-8.8,16.7c-0.4,1.2-0.8,1.5-1.5,3.3c5.2-0.6,3.6,4.4,3.6,7.5c0,4.8-3.2,3.3-4.8,2.7c-7.6-1.5-9.2,7.5-14.8,13.4
		c7.6,0,14,0,20,0C344.7,95.9,344.7,96.5,344.7,96.8z"/>
	<path class="st0" d="M497.2,148.9c-17.6,0-35.6,0-53.2,0c-2.4,0-2.4,1.5-2.4,3.8c0,4.8,0,9.8,0,14.6c0,3.8-0.8,4.8-3.6,4.8
		c-3.6,0-7.1,0-10.4,0c-2,0-3.2-0.6-3.2-3.8c0-24.4,0-49.2,0-73.5c0-3.3,1.3-3.8,3.2-3.8c27.6,0,55.6,0,83.2,0
		c2.4,0,3.2,1.2,3.2,4.4c0,17.3,0,34.6,0,51.8c0,14-8.4,24.4-18.8,24.8c-2,0-4.1-0.6-5.6,0c-4.1,1.2-5.2-1.2-4.8-6.5
		c0-3.3,0.8-3.8,3.2-3.8C493.6,161.2,496.4,157.5,497.2,148.9z"/>
	<path class="st0" d="M344.7,96.8c-0.4-0.6-0.4-0.6-0.8-1.2c-1.5-2.1-0.4-3.8,0.4-6c7.1-19,11.6-39,13.6-59.9
		c0.4-3.8,1.3-4.4,4.1-4.4c3.6,0,7.1,0.6,10.4,0c2.8,0,3.2,1.2,2.8,4.4c-0.8,7.1-2,14-3.2,21.7c8.4,0,16.4,0,24.8,0
		c1.3,0,3.2-1.5,3.6,1.5c0,2.7,0.8,7.5-0.4,7.5c-4.1,1.2-2.8,4.8-2.8,7.5c-0.8,22.7-5.2,43.8-14.4,63.2c-1.3,2.1-0.8,3.8,0.4,5.4
		c4.8,6,9.9,11.3,16,15.7c2.4,1.5,2.4,2.7,1.3,6c-2,4.4-3.6,8.6-5.2,13.1c-1.3,3.3-2.4,3.3-4.3,1.5c-7.6-5.4-14.4-13.1-20-21.7
		c-6.4,8.1-13.2,14.6-20.9,20.5c-1.5,1.2-3.2,2.7-4.3-0.6c-0.8-2.7-3.2-4.8-0.4-8.1c6-7.1,11.2-15.2,15.5-23.2
		c1.3-1.5,2.4-3.8,1.3-6.5c-4.3-12.5-6.9-25.9-8-39.4c-2.4,0.6-3.2,2.7-4.3,4.4C347.1,101.8,345.4,101.8,344.7,96.8z"/>
	<path class="st0" d="M441.5,70.9c17.2,0,34,0,50.4,0c0.8-2.1-0.4-3.3-1.3-4.4c-2.4-3.8-1.3-6.5,0.8-9.2c2.4-3.8,3.6,0,4.8,1.2
		c7.1,6,15.3,8.6,24,9.8c-2.8,6.5-4.8,12.5-7.1,19c-0.8,2.1-2.4,1.5-3.2,0.6c-10.8-8.6-22.8-5.4-34.5-6c-16-0.6-31.7,0-47.6,0
		c-1.5,0-3.2,0.6-4.3-1.2c-3.2-4.8-3.2-6.5,1.3-9.8c5.6-4.8,10.8-10.2,15.5-18.4c-7.6,0-14.4,0-21.2,0c-3.2,0-4.1-1.2-4.1-5.4
		c0-4.8,1.3-5.4,4.1-4.8c12,0,24.4,0,36.4,0c3.6,0,4.8-1.2,4.3-6c-0.4-8.1,0-8.1,6.4-8.1c0.8,0,1.5,0,2.4,0c8,0,8,0,8.4,10.2
		c0,3.8,1.5,3.8,3.6,3.8c12,0,24.4,0,36.4,0c2.8,0,5.2-0.6,4.8,5.4c0,5.4-2,4.8-4.8,4.8c-18.3,0-37.3,0-55.6,0
		c-2.8,0-4.8,1.2-6.9,3.8C452,61.3,446.7,65.5,441.5,70.9z"/>
	<path class="st0" d="M508.7,232.6c0-8.1,0-16.1,0-24.4c0-2.1,0-4.4,2.4-3.8c2.4,0,2.8,1.2,2.8,3.8c0,12.5,0,24.8,0,37.3
		c0,2.1,1.3,4.8-1.5,5.4c-2.4,0-4.1,0-5.6-3.3c-3.6-9.8-8-19.4-12-29.8c-2,2.7-0.4,6-0.8,8.6c0,6.5,0,13.4,0,20c0,2.7,0,4.4-2.8,4.4
		s-2.8-1.5-2.8-4.4c0-12.5,0-24.8,0-37.3c0-1.5-1.3-4.8,1.3-4.8c2,0,4.3-1.2,5.6,2.7c4.1,10.2,8,20.5,12.5,30.3
		C510.4,236.8,509.1,234.7,508.7,232.6z"/>
	<path class="st0" d="M190.2,224c0,7.5,0,15.7,0,23.2c0,3.3-0.8,3.8-2.8,4.4c-2.4,0-2.8-1.5-2.8-4.4c0-12.5,0-24.8,0-37.3
		c0-1.5-1.3-4.8,1.3-5.4c2-0.6,4.3-1.2,6,2.7c4.1,9.8,8,19.4,12,29.2c2.4-0.6,1.3-2.7,0.8-3.8c0-8.1,0-16.1,0-24.4
		c0-2.7,0.4-3.8,2.4-3.8c2.4,0,3.2,1.2,2.8,3.8c0,12.5,0,25.3,0,37.8c0,1.5,1.3,4.8-1.5,4.8c-2,0-4.1,1.2-5.2-2.7
		c-4.1-10.2-8-20-12-29.8C188.5,219.5,190.2,222.2,190.2,224z"/>
	<path class="st0" d="M451.2,227.2c0-17.3,8.8-27.7,19.6-23.2c8.8,3.8,13.2,19,9.7,33.4c-2.8,11.3-10.8,16.7-18.8,13.1
		C454.8,248.2,451.2,239.5,451.2,227.2z"/>
	<path class="st0" d="M293.4,204.6c15.3,0,22.8,14.6,17.2,34c-2.4,8.1-6.9,11.9-13.2,12.5c-11.2,1.2-11.2,1.2-11.2-14
		c0-8.6,0.4-17.9,0-26.5c-0.4-5.4,1.3-7.5,4.8-6.5C291.8,204.6,292.6,204.6,293.4,204.6z"/>
	<path class="st0" d="M134.5,227.8c0-6.5,0-13.1,0-19.4c0-3.3,0.4-4.4,2.8-4.4c2.4,0,3.2,1.2,2.8,3.8c0,0.6,0,1.2,0,1.2
		c0,14.6,1.3,15.7,12,13.4c2-0.6,2.4-1.5,2.4-3.8c0-3.8,0-7.5,0-11.3c0-3.3,0.8-3.8,2.8-3.3c1.5,0,3.2,0,3.2,3.3
		c0,13.4,0,26.5,0,39.9c0,3.8-1.5,3.3-3.2,3.8c-2.4,0-2.4-1.5-2.4-3.8c0-4.4,0-9.2,0-13.4c0-2.7-0.4-4.4-2.8-3.8h-0.4
		c-11.2-0.6-11.2-0.6-11.2,14.6c0,2.1,1.5,6.5-2.4,6.5c-2.4,0-3.6-0.6-3.2-4.4C134.5,240.7,134.5,234.1,134.5,227.8z"/>
	<path class="st0" d="M47.2,220.7c0,5.4,0,10.2,0,15.7c0.4,5.4,2.4,9.2,6.4,9.2c4.3,0.6,6.9-3.3,7.6-8.6c0.8-9.2,0.4-17.9,0.4-27.1
		c0-2.1-0.8-5.4,2.4-5.4s3.2,1.5,3.2,4.8c-0.4,9.2,0.4,19-0.8,28c-1.3,9.8-5.2,14.6-12.7,14.6c-7.1,0-11.6-5.4-12.5-15.2
		c-0.8-9.8,0-19.4-0.4-29.2c0-3.3,1.3-3.3,2.8-3.3c1.5,0,3.2,0,2.8,3.3C46.9,212.1,46.9,216.3,47.2,220.7
		C46.9,220.7,47.2,220.7,47.2,220.7z"/>
	<path class="st0" d="M344.3,221.3c0,5.4,0.4,11.3,0,16.7c-1.3,9.8-5.2,14-12,14c-7.1,0-11.6-4.4-12.7-13.4
		c-1.3-10.2-0.4-21.1-0.4-31.3c0-3.8,2.4-2.1,3.6-2.1c2-0.6,2.4,1.2,2.4,3.3c0,7.5,0,14.6,0,22.1c0,1.5,0,3.3,0,5.4
		c0.4,6.5,3.2,10.2,6.9,10.2c4.1,0,7.1-3.8,7.1-10.2c0.4-8.6,0-16.7,0-25.3c0-2.7-0.8-5.4,2.8-5.4s2.8,2.7,2.8,5.4
		C344.7,213.6,344.7,217.4,344.3,221.3C344.7,221.3,344.7,221.3,344.3,221.3z"/>
	<path class="st0" d="M257.9,228.2c0-6.5,0-13.1,0-19.4c0-3.3,0.4-4.8,3.2-4.4c4.8,0.6,9.9,0,14.8,0c2,0,2.8,0,2.8,3.3
		s-1.3,3.3-3.2,3.3s-4.1,0-6.4,0c-5.6,0-7.1,3.3-5.6,10.2c0.4,2.1,1.5,2.1,2.8,2.1c2.4,0,5.2,0,7.6,0c1.5,0,2.4,0.6,2.4,2.7
		c0,2.1-0.4,3.8-2.4,3.8c-1.5,0-3.6,0.6-5.2,0c-4.3-1.2-5.2,1.5-5.6,7.5c-0.4,6.5,1.5,8.1,6,7.5c2.4-0.6,5.2,0,7.6,0
		c2,0,2,1.5,2,3.3c0,2.1-0.4,3.3-2,3.3c-5.6,0-11.2,0-16.8,0c-2.4,0-2.4-2.1-2.4-4.4C257.9,240.7,257.9,234.1,257.9,228.2z"/>
	<path class="st0" d="M379.4,250.5c3.6-14.6,7.1-28.6,10.4-42.6c0.8-3.3,2.4-3.3,4.3-3.3s3.2,0,4.1,3.3c3.2,13.4,6.4,26.5,9.7,39.9
		c0.4,1.2,1.5,3.3-0.4,3.8c-1.5,0.6-4.1,1.5-5.2-1.2c-0.4-0.6-0.4-1.2-0.4-1.5c-2.8-10.2-3.6-11.3-12-9.8c-3.2,0.6-2.8,4.4-3.2,6.5
		C385.9,249.9,384.3,252.6,379.4,250.5z"/>
	<path class="st0" d="M116.1,252c-4.3,0-7.6-1.5-10.4-4.4c-1.3-1.2-2.8-2.1-1.3-4.8c1.3-2.1,2-3.3,4.3-1.2c2.8,2.7,6,4.4,9.9,2.7
		c1.5-0.6,3.2-2.1,3.6-4.8c0.4-2.7-0.4-4.8-2.4-6.5c-2.4-1.5-4.8-3.3-7.1-4.4c-6-3.8-8.4-9.2-7.1-16.1c1.3-6.5,7.1-10.8,13.2-9.8
		c2,0.6,4.3,1.2,6,3.3c0.8,1.2,3.2,1.5,1.5,4.4c-1.3,2.1-2,3.8-4.1,1.5c-2-2.1-4.8-2.7-7.1-2.1c-2,0.6-3.6,2.1-4.1,4.8
		c-0.4,2.7,0.8,4.4,2.4,6c2,1.5,4.3,2.7,6.4,3.8c6.9,3.8,9.2,9.2,8,16.7C126.9,247.8,122.1,252,116.1,252z"/>
	<path class="st0" d="M218.9,227.8c0-6.5,0-12.5,0-19c0-3.3,0.4-4.4,3.2-4.4c4.8,0.6,9.9,0,14.8,0c1.5,0,3.2-0.6,3.2,3.3
		c0,3.3-1.3,3.3-2.8,3.3c-3.2,0-6.4,0-9.7,0c-4.1-0.6-2.8,3.8-2.8,6c0,2.7-2,7.1,2.8,7.1c2.4,0,4.8,0,7.1,0c1.5,0,2.8,0,2.8,2.7
		s-0.8,3.8-2.8,3.8c-1.3,0-2.4,0-4.1,0c-4.8-1.2-6.4,1.5-6,8.1c0,5.4,0.8,7.5,4.8,6.5c2.4-0.6,5.2,0,7.6,0c1.5,0,3.2,0,3.2,3.3
		s-1.3,3.3-2.8,3.3c-5.2,0-10.4,0-16,0c-2.4,0-2.8-1.2-2.8-3.8C218.9,240.7,218.9,234.1,218.9,227.8z"/>
	<path class="st0" d="M351.4,228.2c0-13.4,4.8-22.7,13.2-24.4c3.6-0.6,6.9,0,9.9,3.3c1.3,1.2,3.2,2.1,1.3,4.8
		c-1.3,1.5-1.5,2.7-3.6,1.2c-6.4-4.8-12-1.5-14,7.5c-1.3,5.4-1.3,10.8,0,15.7c2,8.6,8.4,11.9,14,7.1c2-1.5,2.8-2.1,4.3,0.6
		c2,3.3-0.4,4.4-1.5,5.4c-4.3,4.4-9.7,4.8-14.4,1.5c-6-3.8-8.4-10.8-9.2-19C351.4,230.5,351.4,229.3,351.4,228.2z"/>
	<path class="st0" d="M416.7,230.9c0-2.7,0-5.4,0-8.6c0-3.8,0.8-8.1-0.4-10.8s-4.8-1.2-7.1-1.2c-2,0-2.4-1.5-2.4-3.8
		c0-2.1,0.4-3.3,2-3.3c7.1,0,14.4,0,21.6,0c2,0,2.4,1.2,2.4,3.8c0,2.1-0.8,2.7-2.4,3.3c-2.4,0-6-1.2-7.1,0.6
		c-2,2.7-0.8,7.5-0.8,11.9c0,7.5,0,15.7,0,23.2c0,2.7,0,4.8-2.8,4.8c-2.8,0-2.8-2.1-2.8-4.8C416.7,241.2,416.7,235.9,416.7,230.9z"
		/>
	<path class="st0" d="M175.8,227.8c0,6.5,0,13.1,0,19.4c0,3.3-0.4,4.4-2.8,3.8c-2.4,0-2.8-0.6-2.8-3.8c0-13.1,0-26.5,0-39.4
		c0-2.7,0.4-3.8,2.8-3.8c2,0,3.2,0,3.2,3.8C175.8,214.7,175.8,221.3,175.8,227.8z"/>
	<path class="st0" d="M444.3,227.2c0,6.5,0,13.4,0,20c0,3.3-0.4,4.4-2.8,4.4c-2.4,0-2.8-1.2-2.8-3.8c0-13.1,0-25.9,0-39.4
		c0-2.7,0.4-3.8,2.4-3.8c2,0,3.2,0,3.2,3.8C444.3,214.2,444.3,220.7,444.3,227.2z"/>
	<path class="st0" d="M83.6,229.9c2,2.1,5.6-2.7,6,3.3c0,6.5-4.1,3.3-6,3.3c-2,0-6.4,3.3-6-2.7C77.7,227.2,81.6,232,83.6,229.9z"/>
	<path class="st1" d="M190.2,224c-1.3-2.7-0.8-5.4-0.8-8.1c1.3,1.2,1.5,1.5,1.5,3.3C189.8,220.1,190.5,222.2,190.2,224z"/>
	<path class="st2" d="M508.7,232.6c0.4,1.5,0.8,3.8,0.8,5.4c0,0.6,0,1.5-0.8,1.5c-0.4,0-0.8-1.2-0.8-1.5
		C509.1,236.4,508.4,234.1,508.7,232.6z"/>
	<path class="st3" d="M204.5,232.6c0.4,1.5,0.4,2.7,0.8,4.4c0,0.6,0.4,2.1-0.4,2.1c-0.8,0-1.3-1.2-1.3-2.1
		C204.2,235.3,204.5,234.1,204.5,232.6z"/>
	<path class="st4" d="M331.8,55.9c-3.2,6-5.6,11.3-8.4,16.7c-0.4,0-0.8,0-0.8-0.6c0-2.1,0-4.4,0-6.5
		C322.7,54.2,322.7,54.2,331.8,55.9z"/>
	<path class="st5" d="M469.5,101.3c8,0,16.4,0.6,24.4,0c4.8,0,3.2,4.4,3.2,7.1c0,3.3,0.8,6.5-3.6,6.5c-16.4-0.6-32.4-0.6-48.9,0
		c-4.8,0-3.2-4.4-3.6-7.1c0-3.3-0.8-6.5,3.6-6.5C453.1,101.8,461.1,101.3,469.5,101.3z"/>
	<path class="st5" d="M469.1,138.5c-8,0-16.4-0.6-24.4,0c-3.6,0-3.6-2.1-3.2-5.4c0.4-3.3-2.4-8.1,3.2-8.1c16.4,0,33.2,0,49.6,0
		c2.4,0,2.8,0.6,3.2,3.8c0.4,9.8,0.4,9.8-6.9,9.8C483.5,138.5,476.4,138.5,469.1,138.5z"/>
	<path class="st6" d="M371,115.8c-4.8-11.3-7.1-22.7-9.7-33.4c-0.4-2.1,0.4-3.3,0.8-4.8c1.3-2.7,2.8-4.8,3.2-7.5
		c1.5-7.1,5.2-8.1,9.9-8.1c3.6,0,4.3,1.5,4.3,6C379,84.5,376.6,100.1,371,115.8z"/>
	<path class="st5" d="M475.5,226.6c0,5.4-0.4,10.2-2.8,14c-3.6,6.5-10.4,6.5-13.6-0.6c-3.6-7.5-3.6-16.1-0.4-23.8
		c3.2-7.5,10.8-7.5,14.4-0.6C475.1,219.2,475.5,223.4,475.5,226.6z"/>
	<path class="st5" d="M291.8,227.8c0-4.4,0.4-8.1,0-12.5c-0.4-4.4,1.3-4.8,4.1-4.8c7.1,0.6,10.8,7.1,10.4,18.4
		c-0.4,10.8-4.8,16.1-12,16.1c-2.4,0-2.8-1.2-2.4-3.8C291.8,236.4,291.8,232,291.8,227.8z"/>
	<path class="st7" d="M393.9,210.9c1.5,7.5,2.8,13.4,4.3,20c-2.8,0-5.6,0-8.8,0C391.1,224.9,392.3,218.6,393.9,210.9z"/>
</g>
</svg>
