<svg id="图层_1" data-name="图层 1" xmlns="http://www.w3.org/2000/svg" viewBox="0 0 144.56 64.92"><title>ushinef-logo-white</title><path d="M86.38,3.87V10a4.2,4.2,0,0,1-4.6,4.57A4.25,4.25,0,0,1,77.42,10V3.87H79.1V10a2.81,2.81,0,1,0,5.61,0V3.87h1.67Z" style="fill:#fff"/><path d="M88.52,9.34H94v1.4H88.52V9.34Z" style="fill:#fff"/><path d="M102.59,6.19A3.21,3.21,0,0,0,100,5c-1.42,0-2.44.59-2.44,1.6s1.18,1.31,2.56,1.51c2.17,0.3,4.24.9,4.24,3.27s-2.17,3.26-4.37,3.26a4.64,4.64,0,0,1-4.54-2.4l1.27-.84A3.66,3.66,0,0,0,100,13.14c1.27,0,2.67-.42,2.67-1.75,0-1.15-1.22-1.54-2.7-1.73-2.1-.29-4.09-0.81-4.09-3.08s2.17-3,4.07-3a4.3,4.3,0,0,1,3.94,1.78Z" style="fill:#fff"/><path d="M113.48,14.41V10H107.9v4.39h-1.69V3.85h1.69v4.6h5.58V3.85h1.67V14.41h-1.67Z" style="fill:#fff"/><path d="M117.78,14.41V3.85h1.67V14.41h-1.67Z" style="fill:#fff"/><path d="M129.36,11.36V3.85H131V14.41h-1.28l-6-7.45v7.45h-1.7V3.85h1.3Z" style="fill:#fff"/><path d="M141.47,14.41h-7.8V3.85h7.75V5.49h-6.06V8.34h5.82V9.91h-5.82v2.84h6.11v1.66Z" style="fill:#fff"/><path d="M77.56,32.51V22H85v1.64H79.25v3.21h5.49v1.57H79.25v4.12H77.56Z" style="fill:#fff"/><path d="M95.79,22v6.17a4.2,4.2,0,0,1-4.6,4.57,4.25,4.25,0,0,1-4.36-4.57V22h1.67v6.17a2.81,2.81,0,1,0,5.61,0V22h1.67Z" style="fill:#fff"/><path d="M105.56,29.46V21.95h1.69V32.51H106l-6-7.45v7.45h-1.7V21.95h1.3Z" style="fill:#fff"/><path d="M113.87,21.95a5,5,0,0,1,5.29,5.19,5,5,0,0,1-5.29,5.37h-4V21.95h4Zm-2.32,8.93h2.32a3.44,3.44,0,0,0,3.62-3.76,3.43,3.43,0,0,0-3.62-3.56h-2.32v7.31Z" style="fill:#fff"/><path d="M81.56,44.32h6.19v1.44a10.65,10.65,0,0,1-2.33,3.17A11.86,11.86,0,0,0,88.79,50a6.58,6.58,0,0,0-1,1.59A17.62,17.62,0,0,1,84,50.07a17.76,17.76,0,0,1-3.72,1.59,6.37,6.37,0,0,0-.94-1.44,11.26,11.26,0,0,0,3.27-1.29,16,16,0,0,1-1.59-2l1.14-1A8.47,8.47,0,0,0,84,48a9.26,9.26,0,0,0,1.88-2.23H81.16a12.43,12.43,0,0,1-3.27,5.45A10.13,10.13,0,0,0,77,49.67,13.24,13.24,0,0,0,80.07,43H77.35V41.55h3q0.1-.69.15-1.44h1.78q0,0.74-.15,1.44H88.6V43H81.86Q81.71,43.73,81.56,44.32Z" style="fill:#fff"/><path d="M105.66,51.6H104V50.66H95.45V42.34h1.68v6.79h2.53v-9h1.78v9H104V42.34h1.68V51.6Z" style="fill:#fff"/><path d="M124.1,48.53q-0.5.69-.89,1.29a20,20,0,0,1-1.73-1.19v0.79H119v0.69h4.26v1.14H113.15V50.12h4.26V49.42h-2.53V48.68a7.94,7.94,0,0,1-1.68,1.14q-0.15-.2-0.45-0.64t-0.45-.64a9.74,9.74,0,0,0,2.48-1.39h-2.33V45.91h2.08V42.29h-1.73V41.1h1.73v-1h1.59v1h4.16v-1h1.63v1h1.68v1.19h-1.68v3.62h2v1.24h-2.33A11.65,11.65,0,0,0,124.1,48.53Zm-6.69-.35V47.34H119v0.84h1.93l-0.35-.35a6.53,6.53,0,0,1-.69-0.69h-3.37a6.69,6.69,0,0,1-.69.69l-0.35.35h1.93Zm-1.29-5.9v0.59h4.16V42.29h-4.16Zm0,1.54v0.59h4.16V43.82h-4.16Zm0,1.49v0.59h4.16V45.31h-4.16Z" style="fill:#fff"/><path d="M130.31,51.26V49.92h2.53l-0.45-.59q-0.45-.54-0.69-0.89l1.34-.79,1.29,1.54-1.14.74H135V47.59h-3.72V46.15H135v-1h-2.23V44.22l-0.69.4a11.63,11.63,0,0,1-1.14.69l-0.59-.89a6.22,6.22,0,0,0-.4-0.64,12.74,12.74,0,0,0,5.2-3.67h2.43l-0.54.55a11.08,11.08,0,0,0,4.81,2.87q-0.35.55-.89,1.49a0.14,0.14,0,0,0,0,.1l-1.14-.59a6.82,6.82,0,0,0-.69-0.35v1h-2.28v1h3.72v1.44h-1.78l1.44,0.74q-0.64.84-1.24,1.59h2.53v1.34h-11.1Zm5.6-9.61a19.64,19.64,0,0,1-2.48,2.08h4.9A10.91,10.91,0,0,1,135.91,41.64Zm2.72,5.95h-1.88v2.33h1.83l-1.14-.64q0.2-.3.59-0.84T138.64,47.59Z" style="fill:#fff"/><path d="M16.61,51.23V48.8a12,12,0,0,1-2.91,2.29,6.58,6.58,0,0,1-3,.62,6.27,6.27,0,0,1-4.56-1.64,5.86,5.86,0,0,1-1.7-4.41V36.1A2.58,2.58,0,0,0,4,34.37a3.78,3.78,0,0,0-1.86-.83V33h8.64v0.53A3.67,3.67,0,0,0,9,34.37a2.84,2.84,0,0,0-.46,1.88V46.44a3.63,3.63,0,0,0,.91,2.62,3.31,3.31,0,0,0,2.51,1q2.25,0,4.69-2.53V36.1a2.58,2.58,0,0,0-.44-1.72,3.88,3.88,0,0,0-1.87-.84V33h8.61v0.53a3.39,3.39,0,0,0-1.8.8,3.28,3.28,0,0,0-.48,2.12V48.15a2.59,2.59,0,0,0,.44,1.72,3.82,3.82,0,0,0,1.84.84v0.53h-6.3Z" style="fill:#fff"/><rect x="24.8" y="54.99" width="48.53" height="6.67" style="fill:#fff"/><path d="M29.42,44.35A19.23,19.23,0,0,1,26.07,42a5.69,5.69,0,0,1-1-1.42v6.62A6,6,0,0,0,26.64,50a4.62,4.62,0,0,0,3.3,1.27,4,4,0,0,0,2.5-.76,2.33,2.33,0,0,0,1-1.93,3,3,0,0,0-.63-1.79A13.44,13.44,0,0,0,29.42,44.35Z" style="fill:#fff"/><path d="M25,3.29V35.38a5.15,5.15,0,0,1,1-1.36,6,6,0,0,1,4.28-1.55,8.66,8.66,0,0,1,1.94.27,8.64,8.64,0,0,0,1.61.25,1.46,1.46,0,0,0,1-.52h0.55v5H34.89A6.07,6.07,0,0,0,33,34.68a4.3,4.3,0,0,0-2.78-1.13,3.36,3.36,0,0,0-2.2.74,2.27,2.27,0,0,0-.91,1.82,2.45,2.45,0,0,0,.24,1,3.25,3.25,0,0,0,.69,1,24.33,24.33,0,0,0,2.9,2,34.2,34.2,0,0,1,3.23,2.13,8,8,0,0,1,1.39,1.53,5.37,5.37,0,0,1,1,3.15,5,5,0,0,1-1.78,4,6.39,6.39,0,0,1-.61.44h4.15a3,3,0,0,0,1.88-.83,3.73,3.73,0,0,0,.49-2.24V36.08a2.42,2.42,0,0,0-.46-1.66,4.19,4.19,0,0,0-1.91-.9V33H51.73l0.38,3.56H51.55a4.08,4.08,0,0,0-1.29-1.9A3.53,3.53,0,0,0,48.13,34H44.87V41.8h2.94a3,3,0,0,0,1.92-.52,3.67,3.67,0,0,0,1-1.91H51.3v5.88H50.75a2.88,2.88,0,0,0-.9-1.82,3.2,3.2,0,0,0-2-.55H44.87v5.85a2.72,2.72,0,0,0,.51,1.83,3.08,3.08,0,0,0,1.82.79H73.08v-48H25Z" style="fill:#fff"/></svg>