<?xml version="1.0" encoding="utf-8"?>
<!-- Generator: Adobe Illustrator 19.2.1, SVG Export Plug-In . SVG Version: 6.00 Build 0)  -->
<svg version="1.1" id="图层_1" xmlns="http://www.w3.org/2000/svg" xmlns:xlink="http://www.w3.org/1999/xlink" x="0px" y="0px"
	 viewBox="0 0 75 80" style="enable-background:new 0 0 75 80;" xml:space="preserve">
<path fill="#FFFFFF" d="M67.4,16.1C67.4,16.1,67.3,16,67.4,16.1l-1-0.6L44,2.5l-0.7-0.4L43.2,2c-3.1-1.6-7-1.6-10.1,0L33,2.1l-0.8,0.4l-22.6,13
	l-0.7,0.4l0.6-0.4c-1.6,1.3-2.7,3.4-3,5.5c-0.9,6.1,4.4,11.6,8.7,15c1.1,1,2.3,1.9,3.5,2.8c10.1-7.8,21.2-13.9,33-18.1h0.1
	c5.2-1.9,12.4-3.9,17.3,0c1.6,1.3,2.8,3.3,3.2,5.3v-1.1C72.2,21.2,70.3,18,67.4,16.1C67.4,16.1,70.3,18,67.4,16.1z"/>
<path fill="#FFFFFF" d="M72.3,26.8c-0.3-2.1-1.5-4-3.2-5.3c-4.9-3.9-12.1-1.9-17.3,0h-0.1c-4.7,1.7-9.3,3.7-13.8,6c8.1,4.2,15.7,9.2,22.7,15.1
	c4.3,3.4,9.5,8.8,8.8,14.7c-0.3,2.1-1.4,4.3-3.1,5.7l0.9-0.5c2.8-1.8,5-5.3,5-8.7v-1.2L72.3,26.8l0-1C72.3,25.8,72.3,26.8,72.3,26.8
	z"/>
<path fill="#FFFFFF" d="M2.7,52.1c0.3,2.1,1.5,4,3.2,5.3c4.9,3.9,12.1,1.9,17.3,0h0.1c4.7-1.7,9.3-3.7,13.8-6c-8.1-4.2-15.7-9.3-22.7-15.1
	c-4.3-3.4-9.5-8.8-8.8-14.7c0.3-2.1,1.4-4.3,3.1-5.7l-1,0.5c-2.8,1.8-5,5.3-5,8.7v28.1V52.1z"/>
<path fill="#FFFFFF" d="M7.7,62.7l1,0.6l22.4,12.9l0.8,0.4l0.1,0.1c3.1,1.6,7,1.6,10.1,0l0.1-0.1l0.7-0.4l22.4-12.9l0.7-0.4l-0.6,0.4
	c1.6-1.3,2.7-3.4,3-5.5c0.9-6.1-4.4-11.6-8.7-15c-1.1-1-2.3-1.9-3.5-2.8c-10.1,7.8-21.2,13.9-33,18.1h-0.1c-5.2,1.9-12.4,3.9-17.3,0
	C4.2,57,3,55,2.7,52.9V54C2.9,57.5,4.7,60.8,7.7,62.7C7.7,62.7,4.7,60.8,7.7,62.7z"/>
</svg>
