<svg xmlns="http://www.w3.org/2000/svg" width="280" height="80" viewBox="0 0 280 80"><linearGradient id="a" gradientUnits="userSpaceOnUse" x1="283.5" y1="-301.412" x2="283.5" y2="-251.19" gradientTransform="matrix(1 0 0 -1 -246 -249)"><stop offset="0" stop-color="#00001C"/><stop offset="1" stop-color="#00A0E9"/></linearGradient><path fill="url(#a)" d="M65.4 17.3l-1-.6L42 3.7l-.7-.4-.1-.1c-3.1-1.6-7-1.6-10.1 0l-.2.1-.8.4-22.4 13-.7.4.6-.4c-1.6 1.3-2.7 3.4-3 5.5-.9 6.1 4.4 11.6 8.7 15 1.1 1 2.3 1.9 3.5 2.8 10.1-7.8 21.3-13.9 33.1-18.2h.1c5.2-1.9 12.4-3.9 17.3 0 1.6 1.3 2.8 3.3 3.2 5.3V26c-.3-3.5-2.1-6.7-5.1-8.7 0 0 3 2 0 0z"/><linearGradient id="b" gradientUnits="userSpaceOnUse" x1="299.199" y1="-251.123" x2="299.199" y2="-301.405" gradientTransform="matrix(1 0 0 -1 -246 -249)"><stop offset="0" stop-color="#00001C"/><stop offset="1" stop-color="#00A0E9"/></linearGradient><path fill="url(#b)" d="M70.4 27.1c-.3-2.1-1.5-4-3.2-5.3-4.9-3.9-12.1-1.9-17.3 0h-.1c-4.7 1.7-9.3 3.7-13.8 6C44.1 32 51.7 37 58.7 42.9c4.3 3.4 9.5 8.8 8.8 14.7-.3 2.1-1.4 4.3-3.1 5.7l.9-.5c2.8-1.8 5-5.3 5-8.7V53l.1-25.9V26v1.1z"/><linearGradient id="c" gradientUnits="userSpaceOnUse" x1="2063.476" y1="39.876" x2="2063.476" y2="-10.408" gradientTransform="matrix(-1 0 0 1 2082.375 38.094)"><stop offset="0" stop-color="#00001C"/><stop offset="1" stop-color="#00A0E9"/></linearGradient><path fill="url(#c)" d="M1.7 53c.3 2.1 1.5 4 3.2 5.3 4.9 3.9 12.1 1.9 17.3 0h.1c4.7-1.7 9.3-3.7 13.8-6C28 48.1 20.4 43 13.4 37.2c-4.3-3.4-9.5-8.8-8.8-14.7.3-2.1 1.4-4.3 3.1-5.7l-.9.5c-2.8 1.8-5 5.3-5 8.7v28.1V53h-.1z"/><linearGradient id="d" gradientUnits="userSpaceOnUse" x1="2053.779" y1="10.574" x2="2053.779" y2="60.796" gradientTransform="matrix(-1 0 0 1 2088.23 17.106)"><stop offset="0" stop-color="#00001C"/><stop offset="1" stop-color="#00A0E9"/></linearGradient><path fill="url(#d)" d="M6.6 62.8c.1 0 .1 0 0 0l1 .6L30 76.3l.8.4.1.1c3.1 1.6 7 1.6 10.1 0l.1-.1.7-.4 22.4-12.9.7-.4-.6.4c1.6-1.3 2.7-3.4 3-5.5.9-6.1-4.4-11.6-8.7-15-1.1-1-2.3-1.9-3.5-2.8C45 47.9 33.9 54 22.1 58.2H22c-5.2 1.9-12.4 3.9-17.3 0-1.6-1.3-2.8-3.3-3.2-5.3V54c.3 3.6 2.2 6.8 5.1 8.8.1 0-2.9-2 0 0z"/><path d="M160.2 44.4c0 .5-.3.9-.7.9h-28.1c-.4 0-.7-.4-.7-.9V43c0-.5.3-.9.7-.9h28.1c.4 0 .7.4.7.9v1.4z"/><path d="M127.5 43.3c0 1.1.9 1.9 1.9 1.9h3.3c1.1 0 1.9-.9 1.9-1.9V17.4h-7.2v25.9h.1zm28.7 0c0 1.1.9 1.9 1.9 1.9h3.3c1.1 0 1.9-.9 1.9-1.9V17.4h-7.2v25.9h.1zm-14.4 0c0 1.1.9 1.9 1.9 1.9h3.3c1.1 0 2-.9 2-1.9V14.8h-7.2v28.5zM100.8 25.1c0 7.9 6.4 14.3 14.3 14.3h1v5.9h-1c-11.1 0-20.2-9-20.2-20.2h5.9zM85.7 14.8v23.3c0 3.1-3.6 7.2-3.6 7.2h7.2s3.6-3.2 3.6-7.2V14.8h-7.2z"/><path d="M118 19c0 .9-.7 1.6-1.6 1.6H83.7c-.9 0-1.6-.7-1.6-1.6s.7-1.6 1.6-1.6h32.7c.9 0 1.6.8 1.6 1.6zm-3.5 4.4h-18c-.9 0-1.6.7-1.6 1.6 0 .3.1.6.3.9l.3.3c.3.2.6.4 1 .4h18c.4 0 .8-.1 1-.4l.3-.3c.2-.2.3-.6.3-.9 0-.9-.7-1.6-1.6-1.6z"/><path d="M110.2 25.1c0 7.9-6.4 14.3-14.3 14.3h-1v5.9h1c11.1 0 20.2-9 20.2-20.2h-5.9zM232.4 42.9c0 .7.9 1.2 1.9 1.2h3.3c1.1 0 1.898-.5 1.898-1.2V25H232.3v17.9h.1z"/><path d="M254 26.6c0 .9-.7 1.6-1.6 1.6h-32.7c-.9 0-1.6-.7-1.6-1.6s.7-1.6 1.6-1.6h32.7c.9 0 1.6.7 1.6 1.6zm0 5.7c0 .9-.7 1.6-1.6 1.6h-32.7c-.9 0-1.6-.7-1.6-1.6 0-.9.7-1.6 1.6-1.6h32.7c.9 0 1.6.7 1.6 1.6zm0 11.4c0 .9-.7 1.6-1.6 1.6h-32.7c-.9 0-1.6-.7-1.6-1.6 0-.9.7-1.6 1.6-1.6h32.7c.9 0 1.6.7 1.6 1.6z"/><path d="M228.1 37.2c-.3-.6-.8-1-1.5-1h-5.1l.5 1 1.1 2.2 2 4h6.1l-3.1-6.2zm15.8 0c.3-.6.8-1 1.5-1h5.1l-.5 1-1.1 2.2-2 4h-6.1l3.1-6.2zm-12.2-22.4h-6.3c-.5 0-.9.2-1.2.6l-6.1 8h8.3c.4 0 .8-.1 1-.4l.2-.3.1-.1 3.5-4.6h6.1v-3.2h-5.6z"/><path d="M240.4 14.8h6.3c.5 0 .9.2 1.2.6l6.1 8h-8.3c-.4 0-.8-.1-1-.4l-.2-.3-.1-.1-3.5-4.6h-6.1v-3.2h5.6z"/><g><path d="M201 38.1c.3.6.8 1 1.5 1h5.6l-.5-1-1.1-2.2-2-4h-6.6l3.1 6.2zm-20.5 0c-.3.6-.8 1-1.5 1h-5.6l.5-1 1.1-2.2 2-4h6.5l-3 6.2zm6.6 5c0 .3.9.5 1.9.5h3.3c1.1 0 1.9-.2 1.9-.5v-7.7H187v7.7h.1zM208.7 19c0 .9-.7 1.6-1.6 1.6h-32.7c-.9 0-1.6-.7-1.6-1.6s.698-1.6 1.6-1.6h32.7c.9 0 1.6.8 1.6 1.6zm-7.8 4.6c0 .9-.7 1.6-1.6 1.6h-17.2c-.9 0-1.602-.7-1.602-1.6s.7-1.6 1.6-1.6h17.2c.9 0 1.6.7 1.6 1.6zm0 4.6c0 .9-.7 1.6-1.6 1.6h-17.2c-.9 0-1.602-.7-1.602-1.6 0-.9.7-1.6 1.6-1.6h17.2c.9 0 1.6.7 1.6 1.6z"/><path d="M208.7 32.8c0 .9-.7 1.6-1.6 1.6h-32.7c-.9 0-1.6-.7-1.6-1.6 0-.9.698-1.6 1.6-1.6h32.7c.9 0 1.6.7 1.6 1.6zm-8.7 6.3c0 .9-.7 1.6-1.6 1.6H183c-.9 0-1.6-.7-1.6-1.6 0-.9.7-1.6 1.6-1.6h15.4c.9 0 1.6.7 1.6 1.6zm8.7 4.6c0 .9-.7 1.6-1.6 1.6h-32.7c-.9 0-1.6-.7-1.6-1.6 0-.9.698-1.6 1.6-1.6h32.7c.9 0 1.6.7 1.6 1.6z"/><path d="M183.6 32.8v-18h-7.2v18h7.2zm21.5 0v-18h-7.2v18h7.2z"/></g><g><path d="M83.6 52.9h1.7v9.3c0 1.2.4 1.9 2.7 1.9h5.8c2.3 0 2.7-.7 2.7-1.9v-9.3h1.7v9.3c0 2.5-1.3 3.2-4.4 3.2h-5.7c-3.1 0-4.4-.7-4.4-3.2v-9.3h-.1zm17.3 7.2h4.8v1.4h-4.8v-1.4zm7.3 1.3h1.6v.9c0 1.2.6 1.8 2.7 1.8h5.2c2.4 0 3.1-.5 3.1-2.3 0-1.6-.6-2-2.7-2h-3.2c-5.1 0-6.8-.3-6.8-3.6 0-2.8 1.7-3.5 5.1-3.5h3.6c4.2 0 5.2 1.1 5.2 3.3v.5h-1.6c0-2-.2-2.3-4.6-2.3H114c-3.2 0-4.4.2-4.4 2.2 0 1.5.5 2 3.1 2h5c3.3 0 4.6.9 4.6 3v.8c0 3-2.5 3.3-5 3.3h-4.7c-2.4 0-4.6-.4-4.6-3.1v-1h.2zm16.9-8.5h1.7v5.3H138v-5.3h1.7v12.4H138v-5.7h-11.2v5.7h-1.7V52.9zm17.5 0h1.7v12.4h-1.7V52.9zm4.6 0h2.5L161 63.8V52.9h1.7v12.4h-2.5l-11.3-10.8v10.9h-1.7V52.9zm18.5 0h12.2v1.4h-10.5v4h10.1v1.4h-10.1V64h10.5v1.4h-12.2V52.9zm23 0h11.8v1.4h-10.1v4h9.7v1.4h-9.7v5.7h-1.7V52.9zm14.3 0h1.7v9.3c0 1.2.4 1.9 2.7 1.9h5.8c2.3 0 2.7-.7 2.7-1.9v-9.3h1.7v9.3c0 2.5-1.3 3.2-4.4 3.2h-5.7c-3.1 0-4.4-.7-4.4-3.2v-9.3h-.1zm17.4 0h2.5l11.3 10.9V52.9h1.7v12.4h-2.5l-11.3-10.8v10.9h-1.7V52.9zm18.4 0h10c4.2 0 5.3 1.3 5.3 6.2 0 4.6-1.1 6.2-5.3 6.2h-10V52.9zm13.6 5.6c0-3.6-1.1-4.2-3.2-4.2h-8.8V64h8.5c2 0 3.4-.4 3.4-4.2v-1.3h.1z"/></g></svg>