<svg id="图层_1" data-name="图层 1" xmlns="http://www.w3.org/2000/svg" xmlns:xlink="http://www.w3.org/1999/xlink" viewBox="0 0 624.54 122.19"><defs><clipPath id="clip-path"><rect id="SVGID" width="624.54" height="122.19" style="fill:none"/></clipPath></defs><title>ushinef-pattern-2</title><g style="clip-path:url(#clip-path)"><polygon points="345.35 -3.41 315.72 24.98 288.81 -2.63 261.19 23.44 288.09 51.6 315.19 79.85 342.04 54.09 372.45 24.84 345.35 -3.41" style="fill:#3b3d73"/><rect x="296.64" y="-21.63" width="39.31" height="39.31" transform="translate(89.41 218.42) rotate(-43.81)" style="fill:#61637d"/><path d="M450.89,54.5L424.57,27.06,344.67-56.22l-26-27.14L317-85,179.35,47.07,196,64.42h0L296.3,168.93h0l17.23,18L451.2,54.82ZM234.7,49.28L317-29.65l79.89,83.28-82.73,77.16Z" style="fill:#080059"/><path d="M650.66,44.21L624.33,16.76,544.44-66.52l-26-27.14-0.6-.62L380.14,37.79l15.67,16.33h0L496.06,158.63h0l17.23,18L651,44.52ZM434.47,39l82.28-78.93,79.89,83.28-82.28,78.93Z" style="fill:#080059"/><polygon points="370.33 25.97 315.08 78.98 261.6 23.39 234.57 49.28 288.09 104.87 314.67 132.58 341.66 106.69 396.92 53.68 370.33 25.97" style="fill:#1e2a6f"/><polygon points="763.56 -165 514.85 68.68 317.15 -136.95 290.16 -111.06 487.86 94.57 514.44 122.28 541.43 96.39 790.14 -137.3 763.56 -165" style="fill:#1e2a6f"/><rect x="396.32" y="-115.88" width="38.1" height="322.54" transform="translate(84.2 300.19) rotate(-43.81)" style="fill:#080059"/><polygon points="488.57 41.4 516.28 14.93 542.92 42.48 570.81 16.48 543.9 -11.68 516.8 -39.93 489.96 -14.18 461.47 13.15 488.57 41.4" style="fill:#3b3d73"/><polygon points="596.88 149.52 625.37 122.19 651.64 149.57 678.48 123.82 652.22 96.44 625.11 68.19 598.27 93.94 569.78 121.27 596.88 149.52" style="fill:#3b3d73"/><polygon points="-36.37 149.52 -7.88 122.19 18.38 149.57 45.23 123.82 18.96 96.44 -8.14 68.19 -34.99 93.94 -63.48 121.27 -36.37 149.52" style="fill:#3b3d73"/><rect x="496.27" y="22.13" width="38.86" height="38.86" transform="translate(114.78 368.58) rotate(-43.81)" style="fill:#61637d"/><path d="M234.65,46.27L208.33,18.82,128.43-64.46l-26-27.14-0.6-.62L-35.87,39.85-20.2,56.18h0L80.06,160.69h0l17.23,18L235,46.58ZM18.46,41l83-78.44,78.82,83.1-81.93,76.7Z" style="fill:#080059"/><polygon points="347.55 -162.94 98.84 70.74 -98.85 -134.89 -125.84 -109 71.85 96.63 98.43 124.34 125.42 98.45 374.13 -135.24 347.55 -162.94" style="fill:#1e2a6f"/><polygon points="72.56 43.46 100.27 16.99 126.91 44.53 154.8 18.54 127.89 -9.62 100.79 -37.87 73.95 -12.12 45.46 15.21 72.56 43.46" style="fill:#3b3d73"/><polygon points="177.59 155.47 205.3 129 231.94 156.55 259.83 130.55 232.93 102.39 205.82 74.14 178.98 99.89 150.49 127.22 177.59 155.47" style="fill:#3b3d73"/><polygon points="393.76 165.58 422.23 138.38 449.61 166.69 478.27 139.97 450.62 111.03 422.77 82 395.18 108.46 365.91 136.55 393.76 165.58" style="fill:#3b3d73"/><rect x="80.27" y="24.19" width="38.86" height="38.86" transform="translate(-2.45 81.16) rotate(-43.81)" style="fill:#61637d"/></g></svg>