<?xml version="1.0" encoding="utf-8"?>
<!-- Generator: Adobe Illustrator 24.2.1, SVG Export Plug-In . SVG Version: 6.00 Build 0)  -->
<svg version="1.1" id="图层_1" xmlns="http://www.w3.org/2000/svg" xmlns:xlink="http://www.w3.org/1999/xlink" x="0px" y="0px"
	 viewBox="0 0 612 792" style="enable-background:new 0 0 612 792;" xml:space="preserve">
<style type="text/css">
	.st0{fill:#192447;}
	.st1{fill:#EF8200;}
	.st2{fill:#020202;}
	.st3{fill:#010101;}
	.st4{fill:#030303;}
	.st5{fill:#040404;}
	.st6{fill:#141414;}
	.st7{fill:#969696;}
	.st8{fill:#6F6F6F;}
	.st9{fill:#BEBEBE;}
	.st10{fill:#FEFEFE;}
	.st11{fill:#F1F1F1;}
	.st12{fill:#FBFBFB;}
	.st13{fill:#FCFCFC;}
	.st14{fill:#FDFDFD;}
	.st15{fill:#F8F8F8;}
</style>
<g>
	<path class="st0" d="M85.6,144.8c-18.6,0-36.9,0-55.4,0c-3.4,0-4-1.1-4-4.2c0.3-8.2,0-16.3,0-24.5c0-2.5-0.6-4.2-2.3-5.9
		c-7.7-7.3-14.9-14.6-22.6-22c-1.7-1.7-1.7-2.5,0-4.2C9,76.7,16.7,69.1,24.4,61.5c1.4-1.4,2-2.5,2-4.5c0-8.7,0-17.7,0-26.5
		c0-2.3,0.6-2.8,2.9-2.8c37.7,0,75.4,0,113.2,0c2,0,2.6,0.6,2.6,2.5c0,37.1,0,74.3,0,111.7c0,2.3-0.9,2.8-2.9,2.8
		C123,144.8,104.5,144.8,85.6,144.8z"/>
	<path d="M299.3,61.8c0-9.9,0-19.7,0-29.6c0-2.3,0.3-3.7,3.1-3.1c2.9,0.3,6.9-1.1,8.6,0.6c1.7,1.7,0.6,5.6,0.6,8.4
		c0,17.7,0,35.5,0,53.2c0,2.5,0.6,3.4,3.1,3.1s5.1,0,8,0c4.9,0,7.4-2.5,7.4-7.6c0-12.1,0-23.9,0-36c0-2.5-1.1-6.2,0.6-7.6
		c1.4-1.4,5.1,0,7.7-0.6c3.4-0.6,4,0.8,4,3.9c-0.3,12.7,0,25,0,37.7c0,10.1-5.4,15.5-16,15.5c-14.3,0-28.3,0-42.6,0
		c-9.1,0-14.9-5.6-14.9-14.6c0-13.2,0-26.2,0-39.4c0-2.5,0.9-3.4,3.1-3.1c2.3,0.3,4.3,0.3,6.6,0s2.6,0.6,2.6,2.5
		c0,13.8,0,27.6,0,41.4c0,5.6,2.3,7.9,7.7,7.9c2.6,0,5.1,0,8,0c2,0,2.9-0.6,2.6-2.5C299.3,81.8,299.3,71.7,299.3,61.8z"/>
	<path d="M233,85.4c6.6,3.4,12.3,5.3,18.3,7.6c2,0.8,2.6,1.4,1.4,3.4c-1.7,2.5-2.6,6.5-4.6,7.6c-2.3,0.8-5.4-2-8.3-3.4
		c-4.6-2-8.9-4.5-13.1-7.3c-1.4-0.8-2.6-0.8-4,0c-7.1,4.2-14.9,7-23.1,9c-1.4,0.3-2.9,0.8-4-0.8c-1.4-2-1.7-2.8,1.1-3.9
		c7.1-2.8,14-6.2,20.6-10.7c-4.6-4.2-8.3-8.7-11.7-13.5c-1.7-2.5,0.3-3.4,1.4-4.8c1.4-1.7,2.3,0.3,2.9,0.8c4.3,3.4,8.3,7,12.9,9.9
		c1.1,0.8,2,1.4,3.1,0c4.6-5.1,8.3-10.7,9.7-17.4c0.3-1.7,0.3-2.3-1.7-2.3c-9.1,0-18.6,0-27.7,0c-2.3,0-2.6,1.4-2.9,2.8
		c-4.6,12.4-11.4,23.4-21.4,32.1c-0.9,0.6-1.7,2.5-2.9,1.4s-2.9-2.5-1.1-5.1c8.6-12.7,13.7-26.7,16.9-41.4c1.7-7.3,1.7-7.3-6-7.3
		c-3.4,0-6.9,0-10.3,0c-2.6,0-2-1.4-2-2.8c0-1.7-0.3-2.8,2.3-2.5c5.1,0.3,10.3,0,15.4,0c2.3,0,3.1-0.8,3.1-2.8s0.3-3.9,0.3-5.6
		c0-2,0.6-2.3,2.3-2.3c1.1,0,2.3,0,3.4,0c6.9,0,7.1,0,6.3,6.8c-0.6,3.4,0.3,3.9,3.7,3.9c12.6-0.3,25.4,0,38,0c2,0,4.3-1.1,4.3,2.8
		c0,3.7-2.3,2.5-4,2.5c-13.1,0-26.6,0-39.7,0c-2.3,0-3.4,0.3-3.4,2.8c0,1.4-0.3,2.5-0.6,3.9c-1.1,5.6-1.1,5.6,4.9,5.6
		c11.1,0,22.3,0,33.4,0c2.6,0,3.1,0.8,2.9,3.1c-1.1,10.4-6,19.1-13.4,26.5C235.1,84.6,234.2,84.9,233,85.4z"/>
	<path class="st1" d="M85.6,171c-18.6,0-37.4,0-56,0c-2.6,0-3.4-0.6-3.4-3.1c0.3-3.4,0.3-7,0-10.4c0-2.3,0.9-2.8,2.9-2.8
		c9.1,0,18,0,27.1,0c28.3,0,56.6,0,84.9,0c3.4,0,4.3,0.8,4,4.2c-0.3,3.1-0.3,6.2,0,9c0.3,2.5-0.9,3.1-3.1,3.1
		C123,171,104.2,171,85.6,171z"/>
	<path d="M395.4,62.6c-2,0.6-1.1,2-0.9,2.8c0.6,3.4-0.9,5.9-3.4,8.2c-2.3,1.7-4,3.9-6,5.9c-0.9,0.8-1.1,1.7-0.9,2.8
		c0.6,1.1,1.7,0.6,2.3,0.6c1.7,0,3.1,0.3,4.9,0c2.9-0.6,3.4,1.1,3.1,3.4c0,1.7-0.6,2.3-2.3,2c-0.3,0-0.6,0-0.6,0
		c-4.6-0.6-7.7,0-9.1,5.3c-1.4,5.1-6.3,7.3-11.7,7.9c-1.4,0-2.9,0-4.6,0c-1.4,0-3.4,0.6-3.1-2c0-2-0.3-3.7,2.9-3.4
		c1.7,0.3,3.4-0.8,4.6-2.5c1.1-1.4,2-3.1,1.1-4.8c-0.6-1.4-2.6-0.6-3.7-0.6c-3.7,0-7.4-0.3-10.9,0c-2.6,0.3-2-1.4-2-2.8
		s-0.3-2.8,2.3-2.8c4.3,0.3,8.6,0,12.6,0c0.9,0,2.6,0.3,2-1.4c-1.7-6.5,3.4-9.6,7.1-13.2c0-0.3,0.3-0.3,0.3-0.6
		c-3.7-0.8-3.7-0.8-6.6,1.4c-4,3.4-8.3,6.8-12.3,10.1c-0.6,0.6-1.7,2.3-2.6,0.3c-0.6-1.1-2.9-2.5-0.9-4.2c2.9-2.3,5.4-4.8,8.3-7
		c-0.3-0.3-0.6-0.8-0.6-1.1c-2.6,0-5.1-0.3-7.7,0c-2.3,0.3-2-1.1-2-2.5c0-1.1-0.9-3.1,1.7-2.8c2.9,0.3,5.7-0.3,8.6,0
		c3.4,0.3,6.3-0.6,8-3.7c0.6-0.8,1.4-1.7,2.3-2.5c-0.6-1.1-1.7-0.6-2.6-0.6c-4.9,0-9.7-0.3-14.9,0c-2.9,0.3-3.7-0.8-3.4-3.7
		c0-1.4,0.6-2,2-2c2.9,0,5.7,0,8.6,0c1.4,0,2.3-0.3,2-1.7v-0.3c0.3-6.8,0.3-7-6.6-7c-2.3,0-3.1-0.6-3.1-2.8c0-2.5,1.1-2.8,3.1-2.5
		c0.6,0,1.4,0,2,0c4.6,0,4.6,0,4.6-4.5c0-2,0.6-2.5,2.6-2.5c1.1,0,2.6,0,3.7,0c5.4,0,5.4,0,6,5.1c0,0.8-0.3,2,0.9,1.7
		c3.7-0.8,7.4,1.7,11.1-2.3c1.7-2,5.1,2.5,7.7,3.7c1.7,0.8,0.3,1.7,0,2.3c-2,3.1-4.3,5.9-6.3,8.7c-0.3,0.6-0.6,0.8-1.1,1.7
		c3.7-0.3,2.6,2.3,2.6,3.9c0,2.5-2.3,1.7-3.4,1.4c-5.4-0.8-6.6,3.9-10.6,7c5.4,0,10,0,14.3,0C395.4,62.1,395.4,62.4,395.4,62.6z"/>
	<path d="M504.3,89.7c-12.6,0-25.4,0-38,0c-1.7,0-1.7,0.8-1.7,2c0,2.5,0,5.1,0,7.6c0,2-0.6,2.5-2.6,2.5c-2.6,0-5.1,0-7.4,0
		c-1.4,0-2.3-0.3-2.3-2c0-12.7,0-25.6,0-38.3c0-1.7,0.9-2,2.3-2c19.7,0,39.7,0,59.4,0c1.7,0,2.3,0.6,2.3,2.3c0,9,0,18,0,27
		c0,7.3-6,12.7-13.4,12.9c-1.4,0-2.9-0.3-4,0c-2.9,0.6-3.7-0.6-3.4-3.4c0-1.7,0.6-2,2.3-2C501.7,96.1,503.7,94.2,504.3,89.7z"/>
	<path d="M395.4,62.6c-0.3-0.3-0.3-0.3-0.6-0.6c-1.1-1.1-0.3-2,0.3-3.1c5.1-9.9,8.3-20.3,9.7-31.2c0.3-2,0.9-2.3,2.9-2.3
		c2.6,0,5.1,0.3,7.4,0c2,0,2.3,0.6,2,2.3c-0.6,3.7-1.4,7.3-2.3,11.3c6,0,11.7,0,17.7,0c0.9,0,2.3-0.8,2.6,0.8c0,1.4,0.6,3.9-0.3,3.9
		c-2.9,0.6-2,2.5-2,3.9c-0.6,11.8-3.7,22.8-10.3,32.9c-0.9,1.1-0.6,2,0.3,2.8c3.4,3.1,7.1,5.9,11.4,8.2c1.7,0.8,1.7,1.4,0.9,3.1
		c-1.4,2.3-2.6,4.5-3.7,6.8c-0.9,1.7-1.7,1.7-3.1,0.8c-5.4-2.8-10.3-6.8-14.3-11.3c-4.6,4.2-9.4,7.6-14.9,10.7
		c-1.1,0.6-2.3,1.4-3.1-0.3c-0.6-1.4-2.3-2.5-0.3-4.2c4.3-3.7,8-7.9,11.1-12.1c0.9-0.8,1.7-2,0.9-3.4c-3.1-6.5-4.9-13.5-5.7-20.5
		c-1.7,0.3-2.3,1.4-3.1,2.3C397.1,65.2,395.9,65.2,395.4,62.6z"/>
	<path d="M464.5,49.1c12.3,0,24.3,0,36,0c0.6-1.1-0.3-1.7-0.9-2.3c-1.7-2-0.9-3.4,0.6-4.8c1.7-2,2.6,0,3.4,0.6
		c5.1,3.1,10.9,4.5,17.1,5.1c-2,3.4-3.4,6.5-5.1,9.9c-0.6,1.1-1.7,0.8-2.3,0.3c-7.7-4.5-16.3-2.8-24.6-3.1c-11.4-0.3-22.6,0-34,0
		c-1.1,0-2.3,0.3-3.1-0.6c-2.3-2.5-2.3-3.4,0.9-5.1c4-2.5,7.7-5.3,11.1-9.6c-5.4,0-10.3,0-15.1,0c-2.3,0-2.9-0.6-2.9-2.8
		c0-2.5,0.9-2.8,2.9-2.5c8.6,0,17.4,0,26,0c2.6,0,3.4-0.6,3.1-3.1c-0.3-4.2,0-4.2,4.6-4.2c0.6,0,1.1,0,1.7,0c5.7,0,5.7,0,6,5.3
		c0,2,1.1,2,2.6,2c8.6,0,17.4,0,26,0c2,0,3.7-0.3,3.4,2.8c0,2.8-1.4,2.5-3.4,2.5c-13.1,0-26.6,0-39.7,0c-2,0-3.4,0.6-4.9,2
		C472,44.1,468.2,46.3,464.5,49.1z"/>
	<path class="st2" d="M512.5,133.3c0-4.2,0-8.4,0-12.7c0-1.1,0-2.3,1.7-2c1.7,0,2,0.6,2,2c0,6.5,0,12.9,0,19.4
		c0,1.1,0.9,2.5-1.1,2.8c-1.7,0-2.9,0-4-1.7c-2.6-5.1-5.7-10.1-8.6-15.5c-1.4,1.4-0.3,3.1-0.6,4.5c0,3.4,0,7,0,10.4
		c0,1.4,0,2.3-2,2.3s-2-0.8-2-2.3c0-6.5,0-12.9,0-19.4c0-0.8-0.9-2.5,0.9-2.5c1.4,0,3.1-0.6,4,1.4c2.9,5.3,5.7,10.7,8.9,15.8
		C513.7,135.5,512.8,134.4,512.5,133.3z"/>
	<path class="st2" d="M285.1,128.8c0,3.9,0,8.2,0,12.1c0,1.7-0.6,2-2,2.3c-1.7,0-2-0.8-2-2.3c0-6.5,0-12.9,0-19.4
		c0-0.8-0.9-2.5,0.9-2.8c1.4-0.3,3.1-0.6,4.3,1.4c2.9,5.1,5.7,10.1,8.6,15.2c1.7-0.3,0.9-1.4,0.6-2c0-4.2,0-8.4,0-12.7
		c0-1.4,0.3-2,1.7-2c1.7,0,2.3,0.6,2,2c0,6.5,0,13.2,0,19.7c0,0.8,0.9,2.5-1.1,2.5c-1.4,0-2.9,0.6-3.7-1.4
		c-2.9-5.3-5.7-10.4-8.6-15.5C283.9,126.5,285.1,127.9,285.1,128.8z"/>
	<path class="st3" d="M471.4,130.5c0-9,6.3-14.4,14-12.1c6.3,2,9.4,9.9,6.9,17.4c-2,5.9-7.7,8.7-13.4,6.8
		C474,141.4,471.4,136.9,471.4,130.5z"/>
	<path class="st3" d="M358.8,118.7c10.9,0,16.3,7.6,12.3,17.7c-1.7,4.2-4.9,6.2-9.4,6.5c-8,0.6-8,0.6-8-7.3c0-4.5,0.3-9.3,0-13.8
		c-0.3-2.8,0.9-3.9,3.4-3.4C357.6,118.7,358.2,118.7,358.8,118.7z"/>
	<path class="st2" d="M245.3,130.8c0-3.4,0-6.8,0-10.1c0-1.7,0.3-2.3,2-2.3s2.3,0.6,2,2c0,0.3,0,0.6,0,0.6c0,7.6,0.9,8.2,8.6,7
		c1.4-0.3,1.7-0.8,1.7-2c0-2,0-3.9,0-5.9c0-1.7,0.6-2,2-1.7c1.1,0,2.3,0,2.3,1.7c0,7,0,13.8,0,20.8c0,2-1.1,1.7-2.3,2
		c-1.7,0-1.7-0.8-1.7-2c0-2.3,0-4.8,0-7c0-1.4-0.3-2.3-2-2h-0.3c-8-0.3-8-0.3-8,7.6c0,1.1,1.1,3.4-1.7,3.4c-1.7,0-2.6-0.3-2.3-2.3
		C245.3,137.5,245.3,134.1,245.3,130.8z"/>
	<path class="st4" d="M183,127.1c0,2.8,0,5.3,0,8.2c0.3,2.8,1.7,4.8,4.6,4.8c3.1,0.3,4.9-1.7,5.4-4.5c0.6-4.8,0.3-9.3,0.3-14.1
		c0-1.1-0.6-2.8,1.7-2.8c2.3,0,2.3,0.8,2.3,2.5c-0.3,4.8,0.3,9.9-0.6,14.6c-0.9,5.1-3.7,7.6-9.1,7.6c-5.1,0-8.3-2.8-8.9-7.9
		c-0.6-5.1,0-10.1-0.3-15.2c0-1.7,0.9-1.7,2-1.7c1.1,0,2.3,0,2,1.7C182.8,122.6,182.8,124.8,183,127.1
		C182.8,127.1,183,127.1,183,127.1z"/>
	<path class="st3" d="M395.1,127.4c0,2.8,0.3,5.9,0,8.7c-0.9,5.1-3.7,7.3-8.6,7.3c-5.1,0-8.3-2.3-9.1-7c-0.9-5.3-0.3-11-0.3-16.3
		c0-2,1.7-1.1,2.6-1.1c1.4-0.3,1.7,0.6,1.7,1.7c0,3.9,0,7.6,0,11.5c0,0.8,0,1.7,0,2.8c0.3,3.4,2.3,5.3,4.9,5.3c2.9,0,5.1-2,5.1-5.3
		c0.3-4.5,0-8.7,0-13.2c0-1.4-0.6-2.8,2-2.8c2.6,0,2,1.4,2,2.8C395.4,123.4,395.4,125.4,395.1,127.4
		C395.4,127.4,395.4,127.4,395.1,127.4z"/>
	<path class="st4" d="M333.4,131c0-3.4,0-6.8,0-10.1c0-1.7,0.3-2.5,2.3-2.3c3.4,0.3,7.1,0,10.6,0c1.4,0,2,0,2,1.7
		c0,1.7-0.9,1.7-2.3,1.7s-2.9,0-4.6,0c-4,0-5.1,1.7-4,5.3c0.3,1.1,1.1,1.1,2,1.1c1.7,0,3.7,0,5.4,0c1.1,0,1.7,0.3,1.7,1.4
		c0,1.1-0.3,2-1.7,2c-1.1,0-2.6,0.3-3.7,0c-3.1-0.6-3.7,0.8-4,3.9c-0.3,3.4,1.1,4.2,4.3,3.9c1.7-0.3,3.7,0,5.4,0
		c1.4,0,1.4,0.8,1.4,1.7c0,1.1-0.3,1.7-1.4,1.7c-4,0-8,0-12,0c-1.7,0-1.7-1.1-1.7-2.3C333.4,137.5,333.4,134.1,333.4,131z"/>
	<path class="st3" d="M420.2,142.6c2.6-7.6,5.1-14.9,7.4-22.2c0.6-1.7,1.7-1.7,3.1-1.7c1.4,0,2.3,0,2.9,1.7c2.3,7,4.6,13.8,6.9,20.8
		c0.3,0.6,1.1,1.7-0.3,2c-1.1,0.3-2.9,0.8-3.7-0.6c-0.3-0.3-0.3-0.6-0.3-0.8c-2-5.3-2.6-5.9-8.6-5.1c-2.3,0.3-2,2.3-2.3,3.4
		C424.8,142.3,423.7,143.7,420.2,142.6z"/>
	<path class="st2" d="M232.2,143.4c-3.1,0-5.4-0.8-7.4-2.3c-0.9-0.6-2-1.1-0.9-2.5c0.9-1.1,1.4-1.7,3.1-0.6c2,1.4,4.3,2.3,7.1,1.4
		c1.1-0.3,2.3-1.1,2.6-2.5c0.3-1.4-0.3-2.5-1.7-3.4c-1.7-0.8-3.4-1.7-5.1-2.3c-4.3-2-6-4.8-5.1-8.4c0.9-3.4,5.1-5.6,9.4-5.1
		c1.4,0.3,3.1,0.6,4.3,1.7c0.6,0.6,2.3,0.8,1.1,2.3c-0.9,1.1-1.4,2-2.9,0.8c-1.4-1.1-3.4-1.4-5.1-1.1c-1.4,0.3-2.6,1.1-2.9,2.5
		c-0.3,1.4,0.6,2.3,1.7,3.1c1.4,0.8,3.1,1.4,4.6,2c4.9,2,6.6,4.8,5.7,8.7C239.9,141.2,236.5,143.4,232.2,143.4z"/>
	<path class="st3" d="M305.6,130.8c0-3.4,0-6.5,0-9.9c0-1.7,0.3-2.3,2.3-2.3c3.4,0.3,7.1,0,10.6,0c1.1,0,2.3-0.3,2.3,1.7
		c0,1.7-0.9,1.7-2,1.7c-2.3,0-4.6,0-6.9,0c-2.9-0.3-2,2-2,3.1c0,1.4-1.4,3.7,2,3.7c1.7,0,3.4,0,5.1,0c1.1,0,2,0,2,1.4
		c0,1.4-0.6,2-2,2c-0.9,0-1.7,0-2.9,0c-3.4-0.6-4.6,0.8-4.3,4.2c0,2.8,0.6,3.9,3.4,3.4c1.7-0.3,3.7,0,5.4,0c1.1,0,2.3,0,2.3,1.7
		c0,1.7-0.9,1.7-2,1.7c-3.7,0-7.4,0-11.4,0c-1.7,0-2-0.6-2-2C305.6,137.5,305.6,134.1,305.6,130.8z"/>
	<path class="st2" d="M400.2,131c0-7,3.4-11.8,9.4-12.7c2.6-0.3,4.9,0,7.1,1.7c0.9,0.6,2.3,1.1,0.9,2.5c-0.9,0.8-1.1,1.4-2.6,0.6
		c-4.6-2.5-8.6-0.8-10,3.9c-0.9,2.8-0.9,5.6,0,8.2c1.4,4.5,6,6.2,10,3.7c1.4-0.8,2-1.1,3.1,0.3c1.4,1.7-0.3,2.3-1.1,2.8
		c-3.1,2.3-6.9,2.5-10.3,0.8c-4.3-2-6-5.6-6.6-9.9C400.2,132.2,400.2,131.6,400.2,131z"/>
	<path class="st2" d="M446.8,132.4c0-1.4,0-2.8,0-4.5c0-2,0.6-4.2-0.3-5.6c-0.9-1.4-3.4-0.6-5.1-0.6c-1.4,0-1.7-0.8-1.7-2
		c0-1.1,0.3-1.7,1.4-1.7c5.1,0,10.3,0,15.4,0c1.4,0,1.7,0.6,1.7,2c0,1.1-0.6,1.4-1.7,1.7c-1.7,0-4.3-0.6-5.1,0.3
		c-1.4,1.4-0.6,3.9-0.6,6.2c0,3.9,0,8.2,0,12.1c0,1.4,0,2.5-2,2.5s-2-1.1-2-2.5C446.8,137.8,446.8,135,446.8,132.4z"/>
	<path d="M274.8,130.8c0,3.4,0,6.8,0,10.1c0,1.7-0.3,2.3-2,2c-1.7,0-2-0.3-2-2c0-6.8,0-13.8,0-20.5c0-1.4,0.3-2,2-2
		c1.4,0,2.3,0,2.3,2C274.8,124,274.8,127.4,274.8,130.8z"/>
	<path class="st5" d="M466.5,130.5c0,3.4,0,7,0,10.4c0,1.7-0.3,2.3-2,2.3c-1.7,0-2-0.6-2-2c0-6.8,0-13.5,0-20.5c0-1.4,0.3-2,1.7-2
		c1.4,0,2.3,0,2.3,2C466.5,123.7,466.5,127.1,466.5,130.5z"/>
	<path class="st6" d="M209,131.9c1.4,1.1,4-1.4,4.3,1.7c0,3.4-2.9,1.7-4.3,1.7c-1.4,0-4.6,1.7-4.3-1.4
		C204.8,130.5,207.6,133,209,131.9z"/>
	<path class="st7" d="M285.1,128.8c-0.9-1.4-0.6-2.8-0.6-4.2c0.9,0.6,1.1,0.8,1.1,1.7C284.8,126.8,285.3,127.9,285.1,128.8z"/>
	<path class="st8" d="M512.5,133.3c0.3,0.8,0.6,2,0.6,2.8c0,0.3,0,0.8-0.6,0.8c-0.3,0-0.6-0.6-0.6-0.8
		C512.8,135.3,512.3,134.1,512.5,133.3z"/>
	<path class="st9" d="M295.3,133.3c0.3,0.8,0.3,1.4,0.6,2.3c0,0.3,0.3,1.1-0.3,1.1c-0.6,0-0.9-0.6-0.9-1.1
		C295.1,134.7,295.3,134.1,295.3,133.3z"/>
	<path class="st10" d="M128.5,86.3c0,12.9,0,25.9,0,38.6c0,2.5-0.3,3.4-3.1,3.4c-26.6,0-52.9,0-79.4,0c-2.6,0-3.4-0.6-3.1-3.1
		c0.3-5.6,0-11.3,0-16.9c0-2-0.6-3.4-2-4.8c-5.4-5.1-10.6-10.4-16-15.8c-1.4-1.4-1.7-2.3,0-3.9c5.4-5.1,10.6-10.4,16-15.8
		c1.4-1.4,2-2.8,2-5.1c0-5.6,0-11,0-16.6c0-2.5,0.3-3.4,3.1-3.1c26.6,0,53.2,0,79.7,0c2.3,0,3.1,0.6,3.1,3.1
		C128.5,60.1,128.5,73.1,128.5,86.3z"/>
	<path class="st11" d="M386.2,41.3c-2.3,3.1-4,5.9-6,8.7c-0.3,0-0.6,0-0.6-0.3c0-1.1,0-2.3,0-3.4C379.7,40.4,379.7,40.4,386.2,41.3z
		"/>
	<path class="st12" d="M484.5,64.9c5.7,0,11.7,0.3,17.4,0c3.4,0,2.3,2.3,2.3,3.7c0,1.7,0.6,3.4-2.6,3.4c-11.7-0.3-23.1-0.3-34.9,0
		c-3.4,0-2.3-2.3-2.6-3.7c0-1.7-0.6-3.4,2.6-3.4C472.8,65.2,478.5,64.9,484.5,64.9z"/>
	<path class="st13" d="M484.2,84.3c-5.7,0-11.7-0.3-17.4,0c-2.6,0-2.6-1.1-2.3-2.8c0.3-1.7-1.7-4.2,2.3-4.2c11.7,0,23.7,0,35.4,0
		c1.7,0,2,0.3,2.3,2c0.3,5.1,0.3,5.1-4.9,5.1C494.5,84.3,489.4,84.3,484.2,84.3z"/>
	<path class="st14" d="M414.2,72.5c-3.4-5.9-5.1-11.8-6.9-17.4c-0.3-1.1,0.3-1.7,0.6-2.5c0.9-1.4,2-2.5,2.3-3.9
		c1.1-3.7,3.7-4.2,7.1-4.2c2.6,0,3.1,0.8,3.1,3.1C419.9,56.2,418.2,64.3,414.2,72.5z"/>
	<path class="st14" d="M488.8,130.2c0,2.8-0.3,5.3-2,7.3c-2.6,3.4-7.4,3.4-9.7-0.3c-2.6-3.9-2.6-8.4-0.3-12.4
		c2.3-3.9,7.7-3.9,10.3-0.3C488.5,126.3,488.8,128.5,488.8,130.2z"/>
	<path class="st14" d="M357.6,130.8c0-2.3,0.3-4.2,0-6.5c-0.3-2.3,0.9-2.5,2.9-2.5c5.1,0.3,7.7,3.7,7.4,9.6
		c-0.3,5.6-3.4,8.4-8.6,8.4c-1.7,0-2-0.6-1.7-2C357.6,135.3,357.6,133,357.6,130.8z"/>
	<path class="st15" d="M430.5,122c1.1,3.9,2,7,3.1,10.4c-2,0-4,0-6.3,0C428.5,129.3,429.4,126,430.5,122z"/>
</g>
</svg>
