<?xml version="1.0" encoding="utf-8"?>
<!-- Generator: Adobe Illustrator 24.0.0, SVG Export Plug-In . SVG Version: 6.00 Build 0)  -->
<svg version="1.1" id="图层_1" xmlns="http://www.w3.org/2000/svg" xmlns:xlink="http://www.w3.org/1999/xlink" x="0px" y="0px"
	 viewBox="0 0 624.5 122.2" style="enable-background:new 0 0 624.5 122.2;" xml:space="preserve">
<style type="text/css">
	.st0{clip-path:url(#SVGID_2_);}
	.st1{fill:#3B3D73;}
	.st2{fill:#61637D;}
	.st3{fill:#080059;}
	.st4{fill:#1E2A6F;}
	.st5{fill:#18235A;}
	.st6{fill:#1B2954;}
	.st7{clip-path:url(#SVGID_2_);fill:#3B3D73;}
</style>
<title>ushinef-pattern-2</title>
<g>
	<g>
		<defs>
			<rect id="SVGID_1_" width="624.5" height="122.2"/>
		</defs>
		<clipPath id="SVGID_2_">
			<use xlink:href="#SVGID_1_"  style="overflow:visible;"/>
		</clipPath>
		<g class="st0">
			<polygon class="st1" points="345.4,-3.4 315.7,25 288.8,-2.6 261.2,23.4 288.1,51.6 315.2,79.8 342,54.1 372.5,24.8 			"/>
			
				<rect x="296.6" y="-21.6" transform="matrix(0.7216 -0.6923 0.6923 0.7216 89.3844 218.4107)" class="st2" width="39.3" height="39.3"/>
			<path class="st3" d="M450.9,54.5l-26.3-27.4l-79.9-83.3l-26-27.1L317-85L179.4,47.1L196,64.4l0,0l100.3,104.5l0,0l17.2,18
				L451.2,54.8L450.9,54.5z M234.7,49.3L317-29.6l79.9,83.3l-82.7,77.2L234.7,49.3z"/>
			<path class="st3" d="M650.7,44.2l-26.3-27.4l-79.9-83.3l-26-27.1l-0.6-0.6l-137.8,132l15.7,16.3l0,0L496,158.6l0,0l17.2,18
				L651,44.5L650.7,44.2z M434.5,39l82.3-78.9l79.9,83.3l-82.3,78.9L434.5,39z"/>
			<polygon class="st4" points="370.3,26 315.1,79 261.6,23.4 234.6,49.3 288.1,104.9 314.7,132.6 341.7,106.7 396.9,53.7 			"/>
			<polygon class="st4" points="763.6,-165 514.8,68.7 317.1,-136.9 290.2,-111.1 487.9,94.6 514.4,122.3 541.4,96.4 790.1,-137.3 
							"/>
			
				<rect x="396.3" y="-115.9" transform="matrix(0.7216 -0.6923 0.6923 0.7216 84.2152 300.1481)" class="st1" width="38.1" height="322.5"/>
			<polygon class="st1" points="488.6,41.4 516.3,14.9 542.9,42.5 570.8,16.5 543.9,-11.7 516.8,-39.9 490,-14.2 461.5,13.1 			"/>
			<polygon class="st1" points="596.9,149.5 625.4,122.2 651.6,149.6 678.5,123.8 652.2,96.4 625.1,68.2 598.3,93.9 569.8,121.3 			
				"/>
			<polygon class="st1" points="-36.4,149.5 -7.9,122.2 18.4,149.6 45.2,123.8 19,96.4 -8.1,68.2 -35,93.9 -63.5,121.3 			"/>
			
				<rect x="496.3" y="22.1" transform="matrix(0.7216 -0.6923 0.6923 0.7216 114.8368 368.579)" class="st2" width="38.9" height="38.9"/>
			<path class="st3" d="M234.6,46.3l-26.3-27.5l-79.9-83.3l-26-27.1l-0.6-0.6l-137.7,132l15.7,16.3l0,0L80.1,160.7l0,0l17.2,18
				L235,46.6L234.6,46.3z M18.5,41l83-78.4l78.8,83.1l-81.9,76.7L18.5,41z"/>
			<polygon class="st4" points="347.5,-162.9 98.8,70.7 -98.8,-134.9 -125.8,-109 71.8,96.6 98.4,124.3 125.4,98.4 374.1,-135.2 			
				"/>
			<polygon class="st1" points="72.6,43.5 100.3,17 126.9,44.5 154.8,18.5 127.9,-9.6 100.8,-37.9 73.9,-12.1 45.5,15.2 			"/>
			<polygon class="st5" points="178.6,155.5 206.3,129 232.9,156.6 260.8,130.6 233.9,102.4 206.8,74.1 180,99.9 151.5,127.2 			"/>
			<polygon class="st6" points="393.8,165.6 422.2,138.4 449.6,166.7 478.3,140 450.6,111 422.8,82 395.2,108.5 365.9,136.6 			"/>
			
				<rect x="80.3" y="24.1" transform="matrix(0.7216 -0.6923 0.6923 0.7216 -2.4122 81.1973)" class="st2" width="38.9" height="38.9"/>
		</g>
		
			<rect x="32.1" y="42.1" transform="matrix(0.7241 -0.6897 0.6897 0.7241 11.1907 150.1768)" class="st7" width="322.5" height="38.1"/>
	</g>
</g>
</svg>
