<svg id="图层_1" data-name="图层 1" xmlns="http://www.w3.org/2000/svg" xmlns:xlink="http://www.w3.org/1999/xlink" viewBox="0 0 300 400"><defs><clipPath id="clip-path"><rect id="SVGID" width="299.67" height="409.71" style="fill:none"/></clipPath></defs><title>pattern</title><g style="clip-path:url(#clip-path)"><polyline points="-18.84 227.83 -18.84 -4.44 175.1 -4.44" style="fill:#080059"/><polygon points="72.29 99.19 -20 190.91 -19.13 345.69 149.83 176.73 72.29 99.19" style="fill:#3b3c72"/><rect x="134.04" y="13.54" width="54.42" height="18.19" transform="translate(31.22 120.65) rotate(-45)" style="fill:#3b3c72"/><rect x="272.69" y="22.82" width="64.54" height="18.19" transform="translate(66.75 224.99) rotate(-45)" style="fill:#3b3c72"/><rect x="285.58" y="35.51" width="64.83" height="18.49" transform="translate(61.49 237.96) rotate(-45)" style="fill:#60637d"/><rect x="180.3" y="14.54" width="18.19" height="173.79" transform="translate(-16.25 163.64) rotate(-45)" style="fill:#080059"/><rect x="122.85" y="26.17" width="102.29" height="18.19" transform="translate(26.03 133.36) rotate(-45)" style="fill:#080059"/><rect x="209.9" y="62.56" width="60.32" height="18.19" transform="translate(19.64 190.74) rotate(-45)" style="fill:#080059"/><rect x="241.86" y="17.83" width="85.86" height="18.19" transform="translate(64.37 209.27) rotate(-45)" style="fill:#080059"/><rect x="199.27" y="22.63" width="18.19" height="42.78" transform="translate(29.9 160.23) rotate(-45)" style="fill:#3b3c72"/><rect x="226.3" y="83.6" width="36.23" height="18.19" transform="translate(6.04 199.98) rotate(-45)" style="fill:#3b3c72"/><rect x="58.37" y="23.27" width="18.19" height="18.19" transform="translate(-3.13 57.19) rotate(-45)" style="fill:#60637d"/><rect x="184.63" y="36.11" width="18.19" height="37.21" transform="translate(18.06 153.01) rotate(-45)" style="fill:#60637d"/><rect x="218.02" y="-43.05" width="18.19" height="160.41" transform="translate(40.25 171.48) rotate(-45)" style="fill:#080059"/><rect x="242.09" y="102.32" width="19.01" height="19.01" transform="translate(-5.38 210.66) rotate(-45)" style="fill:#60637d"/><rect x="130.76" y="22.63" width="10.33" height="10.33" transform="translate(20.16 104.25) rotate(-45)" style="fill:#60637d"/><rect x="19.49" y="66.09" width="10.33" height="10.33" transform="translate(-43.17 38.3) rotate(-45)" style="fill:#60637d"/><rect x="140.95" y="180.33" width="17.52" height="17.52" transform="translate(-89.86 161.24) rotate(-45)" style="fill:#60637d"/><rect x="59.79" y="70.93" width="23.6" height="23.6" transform="translate(-37.53 74.85) rotate(-45)" style="fill:#3b3c72"/><rect x="78.24" y="52.48" width="23.6" height="23.6" transform="translate(-19.08 82.5) rotate(-45)" style="fill:#3b3c72"/><rect x="67.12" y="70.87" width="72.83" height="18" transform="translate(-26.15 96.61) rotate(-45)" style="fill:#3b3c72"/><rect x="66.32" y="45.98" width="18.19" height="40.82" transform="translate(-24.85 72.77) rotate(-45)" style="fill:#1e2a6f"/><rect x="44.92" y="54.94" width="34.91" height="21.15" transform="translate(-28.06 63.3) rotate(-45)" style="fill:#1e2a6f"/><rect x="194.75" y="39.33" width="18.19" height="101.63" transform="translate(-4.04 170.54) rotate(-45)" style="fill:#1e2a6f"/><rect id="SVGID-2" data-name="SVGID" x="9.86" y="-45.99" width="357.03" height="429.82" style="fill:none"/><path d="M161.55,86.13L148.69,98.95,135.9,86.16l-13.05,13L135.66,112l13.22,13.22,12.56-12.56,13.33-13.33Z" style="fill:#3b3c72"/><path d="M213.45,112.24L148.93,47.72l-0.29-.29L84.57,111.51l65,65,64.07-64.07Zm-103-.63,38.29-38.29,39,39-38.29,38.29Z" style="fill:#080059"/><polygon points="174.85 99.23 148.99 125.08 122.98 99.07 110.35 111.7 149.33 150.68 187.82 112.19 174.85 99.23" style="fill:#1e2a6f"/><rect x="139.65" y="77.08" width="18.19" height="18.19" transform="translate(-17.37 130.42) rotate(-45)" style="fill:#60637d"/><rect x="200.14" y="125.56" width="18.19" height="42.78" transform="translate(-42.62 190.99) rotate(-45)" style="fill:#1e2a6f"/><rect x="187.27" y="138.42" width="18.19" height="42.78" transform="translate(-55.49 185.66) rotate(-45)" style="fill:#3b3c72"/><rect x="234.51" y="-14.27" width="64.97" height="18.19" transform="translate(81.86 187.28) rotate(-45)" style="fill:#60637d"/><polygon points="208.43 -20.19 238.68 10.28 251.54 -2.59 221.29 -33.06 208.43 -20.19" style="fill:#60637d"/><rect x="231" y="-55.5" width="18.19" height="160.12" transform="translate(52.95 176.97) rotate(-45)" style="fill:#1e2a6f"/><rect x="174.53" y="28.77" width="150.31" height="18.19" transform="translate(46.36 187.65) rotate(-45)" style="fill:#1e2a6f"/></g></svg>