<?xml version="1.0" encoding="utf-8"?>
<!-- Generator: Adobe Illustrator 24.2.1, SVG Export Plug-In . SVG Version: 6.00 Build 0)  -->
<svg version="1.1" id="图层_1" xmlns="http://www.w3.org/2000/svg" xmlns:xlink="http://www.w3.org/1999/xlink" x="0px" y="0px"
	 viewBox="0 0 612 792" style="enable-background:new 0 0 612 792;" xml:space="preserve">
<style type="text/css">
	.st0{fill:#FFFFFF;}
	.st1{fill:#EF8200;}
	.st2{fill:#969696;}
	.st3{fill:#6F6F6F;}
	.st4{fill:#BEBEBE;}
	.st5{fill:#F1F1F1;}
</style>
<g>
	<path class="st0" d="M86.6,179c-18.6,0-37.2-0.1-55.7,0.1c-3.5,0-4.1-1.3-4-5.3c0.2-10.6,0-21.1,0.1-31.7c0-3.1-0.6-5.4-2.4-7.6
		c-7.6-9.4-15.1-19.1-22.7-28.5c-1.8-2.2-1.6-3.3,0.1-5.4c7.8-9.6,15.4-19.4,23.2-29.1c1.3-1.7,1.9-3.3,1.9-5.7
		c-0.1-11.4,0-22.9-0.1-34.3c0-2.8,0.5-3.7,2.8-3.7c38,0.1,75.9,0.1,113.9,0c2.1,0,2.7,0.7,2.7,3.4c-0.1,48.1-0.1,96.2,0,144.2
		c0,3-0.8,3.5-3,3.5C124.5,179,105.5,179,86.6,179z"/>
	<path class="st0" d="M301.7,71.8c0-12.7,0.1-25.5-0.1-38.2c0-3,0.3-4.6,3.1-4.1c2.9,0.5,6.8-1.5,8.6,0.8c1.8,2.3,0.5,7.2,0.5,10.9
		c0,22.9,0.1,45.8,0,68.7c0,3.2,0.6,4.4,3.2,4.1c2.6-0.3,5.3,0,7.9-0.1c5-0.1,7.5-3.2,7.5-9.8c0.1-15.5,0-31,0-46.5
		c0-3.4-1.2-8,0.6-10c1.5-1.7,5.1-0.2,7.7-0.6c3.5-0.6,4,1.2,4,5.2c-0.2,16.2-0.1,32.5-0.1,48.7c0,13.1-5.5,20-16,20
		c-14.2,0-28.5,0-42.7,0c-9.2,0-15-7.4-15-19c0-17,0.1-33.9-0.1-50.9c0-3.4,0.7-4.3,3.3-4c2.2,0.3,4.4,0.3,6.5,0
		c2.2-0.3,2.6,0.7,2.6,3.4c-0.1,17.8-0.1,35.6,0,53.5c0,7.1,2.3,10,7.9,10c2.6,0,5.3-0.2,7.9,0.1c2.1,0.2,2.7-0.7,2.7-3.4
		C301.6,97.6,301.7,84.7,301.7,71.8z"/>
	<path class="st0" d="M235.1,102.5c6.5,4.3,12.5,7.1,18.4,9.7c2.1,0.9,2.7,1.9,1.4,4.4c-1.6,3.3-2.5,8.5-4.7,9.7
		c-2.3,1.2-5.5-2.6-8.2-4.3c-4.6-2.7-9-5.8-13.2-9.3c-1.5-1.2-2.4-1.2-3.9-0.1c-7.2,5.4-15.1,9-23.2,11.5c-1.4,0.4-2.7,1.1-3.9-1.1
		c-1.3-2.5-1.7-3.7,1.1-5.1c7.2-3.6,14.2-7.9,20.6-13.9c-4.6-5.3-8.3-11.1-11.8-17.3c-1.8-3.2,0.2-4.4,1.4-6
		c1.5-2.1,2.2,0.5,2.9,1.3c4.2,4.5,8.4,8.9,13,12.9c1.1,1,1.9,1.7,3.1,0c4.7-6.5,8.3-13.7,9.8-22.5c0.4-2.1,0.2-2.8-1.6-2.8
		c-9.3,0.1-18.6,0.2-27.9,0c-2.4,0-2.5,2-3,3.7c-4.6,16-11.6,30.1-21.7,41.6c-0.8,0.9-1.6,3.4-2.8,1.7c-1.2-1.6-2.9-3.4-1.2-6.7
		c8.5-16.4,13.7-34.5,17-53.6c1.6-9.6,1.7-9.6-5.9-9.6c-3.4,0-6.9-0.2-10.3,0.1c-2.5,0.2-2-1.8-2.1-3.6c-0.1-2-0.2-3.6,2.2-3.5
		c5.2,0.2,10.3-0.1,15.5,0.2c2.4,0.1,3-1,3-3.7c0-2.5,0.3-4.9,0.2-7.4c-0.1-2.4,0.7-3,2.4-2.8c1.1,0.1,2.3,0,3.4,0
		c6.9,0,7.1,0,6.2,8.7c-0.4,4.3,0.4,5.2,3.7,5.1c12.7-0.3,25.5-0.1,38.2-0.1c1.9,0,4.3-1.3,4.3,3.6c-0.1,4.6-2.3,3.3-4.1,3.3
		c-13.3,0.1-26.6,0.1-39.9,0c-2.2,0-3.5,0.3-3.4,3.6c0,1.7-0.4,3.4-0.7,5.1c-1.1,7.3-1.1,7.3,4.9,7.3c11.2,0,22.5,0.1,33.7-0.1
		c2.5,0,3.1,1,2.8,3.9c-1.2,13.5-6,24.7-13.5,34.2C236.8,101.5,236.1,101.8,235.1,102.5z"/>
	<path class="st1" d="M86.6,212.9c-18.8,0-37.6-0.1-56.4,0.1c-2.5,0-3.5-0.6-3.3-4c0.2-4.5,0.2-9,0-13.5c-0.1-3,0.8-3.6,2.9-3.5
		c9.1,0.1,18.1,0.1,27.2,0.1c28.4,0,56.9,0.1,85.3-0.1c3.5,0,4.3,1.2,4,5.3c-0.3,3.9-0.2,7.8,0,11.7c0.2,3.4-0.8,4.1-3.3,4
		C124.2,212.9,105.4,212.9,86.6,212.9z"/>
	<path class="st0" d="M398.2,73c-1.9,0.6-1.1,2.6-1,3.8c0.4,4.5-0.8,7.7-3.5,10.5c-2.2,2.3-4.1,5.1-6.1,7.6c-0.8,1-1.3,2.2-0.9,3.5
		c0.4,1.4,1.6,0.7,2.4,0.8c1.6,0.1,3.2,0.3,4.8,0c3-0.6,3.4,1.3,3.3,4.4c-0.1,2.2-0.7,2.8-2.2,2.6c-0.2,0-0.5,0-0.7,0
		c-4.6-0.8-7.7-0.2-9.2,7c-1.4,6.7-6.3,9.5-11.8,10.1c-1.5,0.2-3,0.1-4.5,0c-1.4-0.1-3.4,0.9-3.2-2.7c0.1-2.6-0.2-4.8,2.9-4.4
		c1.8,0.2,3.5-1.2,4.6-3.2c1-1.8,2-4,1.2-6c-0.6-1.7-2.5-0.7-3.8-0.7c-3.7-0.1-7.4-0.3-11,0c-2.6,0.2-2-1.8-2.1-3.6
		c-0.1-1.9-0.3-3.7,2.2-3.5c4.2,0.3,8.5,0.1,12.7,0.1c0.9,0,2.5,0.4,2.2-1.6c-1.6-8.5,3.5-12.3,7.2-17.3c0.1-0.2,0.2-0.4,0.3-0.7
		c-3.9-0.9-3.9-0.9-6.6,2c-4.1,4.4-8.2,8.8-12.4,13.1c-0.7,0.7-1.6,2.9-2.6,0.5c-0.7-1.6-3-3.1-0.8-5.5c2.7-3.1,5.5-6.1,8.2-9.1
		c-0.2-0.5-0.5-1-0.7-1.5c-2.6,0-5.1-0.2-7.7,0.1c-2.4,0.3-2-1.6-1.9-3.3c0.1-1.6-0.9-4,1.8-3.8c2.9,0.2,5.8-0.3,8.6,0.1
		c3.6,0.5,6.2-0.8,8.1-4.7c0.6-1.2,1.4-2.2,2.2-3.3c-0.6-1.5-1.7-0.8-2.5-0.8c-4.9-0.1-9.9-0.3-14.8,0.1c-3,0.2-3.7-1.1-3.5-4.6
		c0.1-1.9,0.5-2.4,2-2.4c2.9,0.1,5.7,0,8.6,0.1c1.4,0.1,2.2-0.3,2-2.4c0-0.1,0-0.3,0-0.4c0.3-8.9,0.3-9-6.7-8.9
		c-2.3,0-3.1-0.6-3.1-3.7c0-3.3,1.1-3.5,3.1-3.3c0.7,0.1,1.4,0,2.1,0c4.6,0,4.7,0,4.7-5.9c0-2.5,0.6-3.4,2.5-3.2
		c1.2,0.2,2.5,0,3.8,0c5.5,0,5.4,0,5.9,6.6c0.1,0.9-0.2,2.5,0.9,2.2c3.6-0.9,7.4,2.3,11.1-2.7c1.7-2.4,5,3.2,7.8,4.7
		c1.8,1,0.3,2.2-0.1,3c-2,3.8-4.2,7.6-6.3,11.4c-0.3,0.6-0.6,1.2-1.2,2.2c3.6-0.3,2.7,2.7,2.7,5.1c0,3.3-2.2,2.2-3.3,1.9
		c-5.5-1.2-6.7,5.2-10.6,9c5.5,0,10,0,14.5,0C398,72.3,398.2,72.6,398.2,73z"/>
	<path class="st0" d="M507.5,107.7c-12.7,0-25.4,0-38.1,0c-1.7,0-1.8,1-1.8,2.6c0.1,3.3-0.1,6.7,0.1,10c0.1,2.5-0.6,3.3-2.6,3.1
		c-2.5-0.2-5-0.1-7.6,0c-1.5,0.1-2.3-0.3-2.2-2.5c0.1-16.5,0.1-33,0-49.5c0-2.3,0.8-2.5,2.3-2.5c19.9,0,39.9,0.1,59.8,0
		c1.8,0,2.4,0.6,2.4,2.9c-0.1,11.6,0.1,23.2-0.1,34.7c-0.1,9.4-6,16.4-13.5,16.9c-1.4,0.1-2.8-0.2-4.1,0.1c-2.9,0.6-3.8-0.9-3.6-4.5
		c0.1-2.2,0.7-2.5,2.2-2.6C505.1,116,506.9,113.7,507.5,107.7z"/>
	<path class="st0" d="M398.2,73c-0.2-0.2-0.3-0.5-0.5-0.7c-1.2-1.4-0.3-2.7,0.2-3.9c5.3-12.7,8.4-26.2,9.8-40.4c0.3-2.5,1-3.1,2.8-3
		c2.5,0.2,5.1,0.2,7.6,0c1.9-0.2,2.3,0.7,2.1,3c-0.5,4.9-1.4,9.6-2.4,14.6c6,0,11.9,0,17.7,0c0.9,0,2.4-0.9,2.5,1.1
		c0.1,1.8,0.7,5-0.3,5.3c-2.8,0.7-1.9,3.2-2,4.9c-0.7,15.3-3.8,29.6-10.4,42.5c-0.8,1.5-0.7,2.4,0.3,3.6c3.4,4.1,7.2,7.6,11.4,10.4
		c1.6,1,1.9,1.9,0.9,3.9c-1.4,2.8-2.7,5.8-3.7,8.8c-0.8,2.3-1.6,2.2-3.1,1.2c-5.6-3.6-10.3-8.5-14.5-14.5c-4.6,5.4-9.5,10-14.9,13.7
		c-1.1,0.8-2.2,1.8-3.1-0.4c-0.7-1.8-2.3-3.1-0.3-5.4c4.2-4.7,7.9-10.1,11.2-15.8c0.7-1.3,1.7-2.4,0.9-4.2
		c-3.3-8.3-4.8-17.3-5.7-26.5c-1.6,0.3-2.3,1.9-3.1,2.9C399.9,76.3,398.8,76.1,398.2,73z"/>
	<path class="st0" d="M467.7,55.4c12.5,0,24.3,0,36.2,0c0.6-1.3-0.4-2.1-0.9-2.8c-1.7-2.5-0.7-4.2,0.7-6.3c1.7-2.5,2.5-0.1,3.6,0.7
		c5.1,4,10.8,5.8,17.3,6.5c-1.9,4.5-3.6,8.5-5.2,12.6c-0.6,1.6-1.6,1-2.3,0.5c-7.8-6-16.4-3.7-24.7-3.9c-11.3-0.3-22.7,0-34.1-0.1
		c-1.1,0-2.2,0.5-3.2-0.9c-2.3-3.2-2.3-4.3,0.7-6.6c4.1-3.1,7.8-7,11.3-12.5c-5.4,0-10.3-0.1-15.1,0.1c-2.3,0.1-2.8-0.8-2.9-3.6
		c-0.1-3.1,1-3.5,3-3.4c8.7,0.1,17.4-0.1,26.1,0.1c2.5,0.1,3.4-0.6,3.3-4c-0.2-5.5,0-5.5,4.5-5.5c0.6,0,1.1,0,1.7,0
		c5.6,0,5.7,0,5.9,6.9c0.1,2.7,1.1,2.6,2.6,2.6c8.7,0,17.4,0,26.1,0c2.1,0,3.6-0.3,3.6,3.6c-0.1,3.7-1.5,3.4-3.4,3.4
		c-13.3,0-26.6,0-39.9-0.1c-2,0-3.4,0.6-4.7,2.5C475.1,48.9,471.5,51.7,467.7,55.4z"/>
	<path class="st0" d="M516,164.3c0-5.5,0-11-0.1-16.5c0-1.6-0.1-2.7,1.7-2.7c1.6,0,2.2,0.6,2.1,2.7c-0.1,8.4,0,16.8-0.1,25.2
		c0,1.3,0.9,3.4-1.3,3.6c-1.6,0.1-3,0.1-3.9-2.3c-2.7-6.6-5.7-13.1-8.7-19.9c-1.5,1.9-0.4,3.9-0.4,5.8c-0.1,4.5-0.1,9,0,13.4
		c0,1.7,0,3-1.9,3c-1.9,0-1.9-1.1-1.9-2.9c0-8.4,0-16.8,0.1-25.2c0-1.1-1-3.2,0.9-3.4c1.5-0.2,3.1-0.7,4.1,1.9
		c2.8,6.9,5.9,13.7,8.8,20.5C517.2,167.1,516.1,165.6,516,164.3z"/>
	<path class="st0" d="M287.2,158.4c0,5.2,0,10.4,0.1,15.6c0,2.1-0.5,2.7-2.1,2.8c-1.8,0.1-2-1-2-2.8c0.1-8.4,0-16.7,0.1-25.1
		c0-1.2-0.9-3.2,0.9-3.5c1.6-0.2,3.3-0.7,4.4,1.9c2.7,6.6,5.7,13.1,8.6,19.6c1.6-0.3,0.7-1.7,0.6-2.7c0-5.5,0.1-11,0-16.4
		c0-1.7,0.2-2.6,1.8-2.6c1.6,0,2.2,0.6,2.1,2.7c-0.1,8.5,0,17-0.1,25.5c0,1.2,0.7,3.2-1.2,3.3c-1.4,0-2.8,0.7-3.8-1.7
		c-2.8-6.8-5.8-13.4-8.7-20C286,155.6,287.2,157.2,287.2,158.4z"/>
	<path class="st0" d="M474.6,160.7c0-11.6,6.3-18.5,14.2-15.5c6.3,2.4,9.4,12.7,6.8,22.5c-2,7.6-7.7,11.3-13.6,8.9
		C477.2,174.6,474.6,168.9,474.6,160.7z"/>
	<path class="st0" d="M361.3,145.3c11,0,16.3,10,12.4,23c-1.7,5.5-5,8-9.5,8.4c-8,0.7-8,0.7-8-9.3c0-5.9,0.2-11.9-0.1-17.8
		c-0.2-3.7,0.7-5,3.5-4.3C360.2,145.4,360.8,145.3,361.3,145.3z"/>
	<path class="st0" d="M247.3,160.9c0-4.3,0.1-8.7,0-13c0-2,0.3-2.8,2.1-2.7c1.6,0,2.4,0.6,2.1,2.7c0,0.3,0,0.6,0,0.9
		c0.1,9.7,0.9,10.5,8.7,9.1c1.4-0.3,1.7-1,1.6-2.5c0-2.6,0.1-5.2,0-7.8c-0.1-2.1,0.6-2.4,2-2.3c1.2,0.1,2.2-0.1,2.2,2.2
		c-0.1,9-0.1,18,0,26.9c0,2.5-1,2.3-2.4,2.4c-1.7,0.2-1.9-0.9-1.8-2.6c0.1-3,0-6.1,0-9.1c0.1-1.8-0.4-2.8-1.9-2.5
		c-0.1,0-0.2,0-0.3,0c-8.1-0.5-8-0.5-8.1,9.8c0,1.6,1.2,4.3-1.7,4.4c-1.7,0-2.5-0.3-2.4-2.8C247.4,169.6,247.3,165.3,247.3,160.9z"
		/>
	<path class="st0" d="M184.6,156.1c0,3.5-0.1,6.9,0,10.4c0.2,3.6,1.8,6,4.7,6.2c3.1,0.2,4.9-2.2,5.3-5.9c0.7-6,0.2-12.1,0.3-18.2
		c0-1.5-0.7-3.5,1.8-3.5c2.2,0,2.4,1.3,2.3,3.4c-0.2,6.3,0.4,12.7-0.5,19c-0.9,6.7-3.9,9.8-9.2,9.7c-5.1-0.1-8.2-3.6-8.8-10.3
		c-0.6-6.5-0.1-13-0.3-19.5c-0.1-2.1,0.8-2.3,2.1-2.3c1.3,0,2.2,0.1,2.1,2.3c-0.1,2.9,0,5.8,0,8.7
		C184.5,156.1,184.6,156.1,184.6,156.1z"/>
	<path class="st0" d="M397.9,156.6c0,3.8,0.4,7.6-0.1,11.3c-0.8,6.4-3.8,9.3-8.7,9.4c-5.2,0.1-8.3-2.8-9.2-9.2
		c-0.9-7-0.2-14.2-0.3-21.2c0-2.6,1.6-1.3,2.5-1.5c1.5-0.4,1.6,0.9,1.6,2.3c0,4.9,0,9.8,0,14.8c0,1.2-0.1,2.3,0,3.5
		c0.3,4.3,2.3,6.9,5,7c2.9,0.1,5.1-2.6,5.3-7.1c0.2-5.6,0.1-11.3,0.1-16.9c0-1.7-0.5-3.7,2-3.7c2.6,0,2,1.9,2,3.6c0,2.6,0,5.2,0,7.8
		C398.1,156.6,398,156.6,397.9,156.6z"/>
	<path class="st0" d="M335.8,161.3c0-4.3,0.1-8.7,0-13c0-2.1,0.3-3.2,2.2-3c3.5,0.2,7.1,0.1,10.6,0c1.3,0,2.1,0.2,2.1,2.3
		c0,2.3-1,2.1-2.2,2.1c-1.5,0-3,0-4.5,0c-4,0-5.1,2-4.1,7c0.3,1.6,1.2,1.5,2.1,1.5c1.8,0,3.7,0,5.5,0c1.1,0,1.7,0.3,1.7,2
		c0,1.5-0.2,2.5-1.7,2.4c-1.3-0.1-2.5,0.2-3.8-0.1c-3.3-0.7-3.7,1.2-3.9,4.9c-0.2,4.4,1,5.5,4.2,5c1.8-0.3,3.7,0,5.5-0.1
		c1.3,0,1.4,1,1.5,2.3c0.1,1.4-0.3,2.1-1.5,2.1c-4-0.1-8-0.1-12,0c-1.8,0-1.6-1.4-1.6-2.9C335.8,169.6,335.8,165.5,335.8,161.3z"/>
	<path class="st0" d="M423,176.3c2.5-9.7,5.1-19.2,7.5-28.8c0.6-2.3,1.7-2.2,3.2-2.2c1.3,0,2.3,0.1,2.8,2.1
		c2.3,8.9,4.7,17.8,6.9,26.7c0.2,0.7,1.1,2.2-0.2,2.5c-1.2,0.2-2.7,1-3.7-0.8c-0.2-0.3-0.2-0.8-0.3-1.2c-2-7.1-2.6-7.5-8.7-6.7
		c-2.4,0.3-2,2.8-2.3,4.5C427.6,175.8,426.4,177.8,423,176.3z"/>
	<path class="st0" d="M234.2,177.3c-3.1,0.1-5.4-1-7.6-2.8c-0.9-0.8-2.1-1.5-0.9-3.3c0.9-1.4,1.6-2.1,3-0.7c2,2,4.4,3.1,7.1,1.9
		c1.3-0.5,2.3-1.4,2.5-3.2c0.3-2-0.4-3.4-1.7-4.3c-1.7-1.1-3.5-2.1-5.3-3.1c-4.3-2.5-6.2-6.3-5.2-10.7c1-4.4,5.2-7.4,9.4-6.4
		c1.6,0.3,3.2,0.8,4.4,2.2c0.7,0.7,2.2,1,1.2,2.9c-0.7,1.4-1.4,2.5-3,1c-1.5-1.5-3.3-1.8-5.2-1.4c-1.5,0.3-2.6,1.3-2.9,3.2
		c-0.3,1.8,0.7,3.1,1.8,3.8c1.5,1,3.1,1.8,4.7,2.6c4.9,2.6,6.7,6,5.8,11.1C241.7,174.5,238.3,177.3,234.2,177.3z"/>
	<path class="st0" d="M308,160.8c0-4.2,0.1-8.4,0-12.6c-0.1-2.2,0.3-3.1,2.2-3c3.5,0.2,7.1,0.1,10.7,0.1c1.2,0,2.2-0.2,2.2,2.1
		c0,2.1-0.8,2.3-2.1,2.3c-2.3-0.1-4.6,0.2-6.9-0.1c-3-0.3-2,2.4-1.9,4.1c0.1,1.7-1.3,4.8,1.9,4.5c1.7-0.1,3.4,0,5.2,0
		c1.1,0,2,0,1.9,2c0,2-0.6,2.6-2,2.4c-0.9-0.1-1.9,0.1-2.7,0c-3.6-0.8-4.6,1-4.4,5.5c0.1,3.5,0.6,5,3.6,4.5c1.8-0.3,3.7,0,5.5-0.1
		c1.2,0,2.2-0.1,2.3,2.1c0,2.2-0.8,2.3-2.1,2.3c-3.8-0.1-7.6-0.1-11.4,0c-1.6,0.1-1.9-0.7-1.9-2.5C308,169.7,308,165.2,308,160.8z"
		/>
	<path class="st0" d="M403.1,161.2c0-9,3.6-15.2,9.6-16.5c2.6-0.5,5,0.2,7.2,2.1c0.9,0.8,2.2,1.4,0.9,3.2c-0.8,1.2-1.3,1.8-2.7,0.8
		c-4.5-3.3-8.6-1-10.2,5.2c-0.9,3.6-0.8,7.2,0.1,10.6c1.5,5.8,6.2,7.9,10.2,4.6c1.4-1.2,2.1-1.6,3.2,0.3c1.3,2.3-0.4,2.8-1.2,3.5
		c-3.3,2.9-6.9,3.1-10.4,1.2c-4.4-2.4-6-7.2-6.6-12.8C403,162.6,403.1,161.9,403.1,161.2z"/>
	<path class="st0" d="M449.9,163.1c0-1.9,0-3.8,0-5.6c0-2.4,0.6-5.4-0.3-7.2c-0.9-1.8-3.4-0.6-5.2-0.6c-1.5,0-1.6-0.9-1.6-2.4
		c0-1.5,0.3-2,1.5-2c5.2,0.1,10.3,0.1,15.5,0c1.5,0,1.6,0.9,1.6,2.4c0,1.5-0.5,2-1.6,2c-1.8,0-4.4-0.7-5.3,0.5
		c-1.4,1.9-0.4,5.2-0.5,7.9c-0.1,5.2-0.1,10.4,0,15.6c0,2-0.1,3.2-2.1,3.1c-2.1,0-2.1-1.4-2-3.3C449.9,170,449.9,166.5,449.9,163.1z
		"/>
	<path class="st0" d="M277,161c0,4.3-0.1,8.7,0,13c0.1,2-0.4,2.7-2.1,2.7c-1.6,0-2.1-0.5-2.1-2.7c0.1-8.8,0.1-17.6,0-26.5
		c0-1.9,0.4-2.6,1.9-2.5c1.4,0.1,2.4-0.1,2.3,2.4C276.9,152.1,277,156.6,277,161z"/>
	<path class="st0" d="M469.7,160.6c0,4.5-0.1,8.9,0,13.4c0,2-0.4,2.8-2.1,2.8c-1.6,0-2.1-0.6-2.1-2.7c0.1-8.8,0.1-17.6,0-26.4
		c0-1.8,0.3-2.7,1.9-2.5c1.3,0.1,2.4-0.1,2.3,2.4C469.6,151.9,469.7,156.3,469.7,160.6z"/>
	<path class="st0" d="M210.8,162.4c1.3,1.3,4.1-1.8,4.2,2.1c0.1,4.3-2.9,2-4.4,2c-1.5,0-4.5,2.1-4.4-2
		C206.4,160.7,209.4,163.7,210.8,162.4z"/>
	<path class="st2" d="M287.2,158.4c-0.9-1.7-0.6-3.6-0.5-5.6c0.9,0.6,1.1,1.3,1.2,2.1C286.9,155.9,287.7,157.4,287.2,158.4z"/>
	<path class="st3" d="M516,164.3c0.2,1.2,0.5,2.4,0.6,3.6c0.1,0.5,0,1.2-0.6,1c-0.3-0.1-0.5-0.8-0.7-1.2
		C516.3,166.8,515.5,165.4,516,164.3z"/>
	<path class="st4" d="M297.7,164.3c0.2,0.9,0.4,1.9,0.5,2.8c0,0.4,0.4,1.3-0.2,1.3c-0.6,0-0.8-0.8-0.9-1.5
		C297.3,166,297.5,165.1,297.7,164.3z"/>
	<path d="M129.8,103.5c0,16.7-0.1,33.3,0,50c0,3.1-0.3,4.5-3.3,4.4c-26.6-0.2-53.2-0.1-79.9,0c-2.5,0-3.4-0.6-3.3-4
		c0.2-7.2,0-14.5,0.1-21.7c0-2.5-0.6-4.3-2-6.1c-5.4-6.7-10.7-13.6-16.1-20.2c-1.6-1.9-1.7-3,0-5c5.5-6.6,10.7-13.5,16.1-20.2
		c1.5-1.9,2.1-3.8,2.1-6.5c-0.1-7.1,0.1-14.2-0.1-21.3c-0.1-3.1,0.4-4.2,3.1-4.2c26.7,0.1,53.5,0.1,80.2,0c2.4,0,3.1,0.8,3,3.8
		C129.7,69.6,129.8,86.6,129.8,103.5z"/>
	<path class="st5" d="M388.9,45.3c-2.2,4-4.1,7.7-6.1,11.3c-0.2-0.1-0.5-0.1-0.7-0.2c0-1.5,0-3,0-4.5
		C382.2,44.2,382.2,44.2,388.9,45.3z"/>
	<path d="M487.7,75.8c5.8,0,11.7,0.2,17.5-0.1c3.5-0.2,2.3,2.8,2.4,4.9c0.1,2.2,0.5,4.4-2.5,4.3c-11.7-0.3-23.3-0.2-35,0
		c-3.5,0.1-2.4-2.8-2.5-4.9c-0.1-2.3-0.5-4.5,2.6-4.3"/>
	<path d="M487.4,100.9c-5.8,0-11.7-0.2-17.5,0.1c-2.6,0.1-2.6-1.6-2.3-3.6c0.4-2-1.7-5.6,2.2-5.6c11.9,0.1,23.8,0.1,35.7,0
		c1.6,0,2.1,0.5,2.2,2.6c0.2,6.5,0.2,6.5-4.8,6.5C497.7,100.9,492.6,100.9,487.4,100.9z"/>
	<path d="M417.1,85.8c-3.4-7.5-5.1-15.1-6.9-22.6c-0.3-1.4,0.2-2.2,0.7-3.2c0.8-1.7,1.9-3.3,2.4-5.2c1.2-4.7,3.7-5.5,7.3-5.3
		c2.7,0.1,3.3,1,3.1,4.2C422.8,64.6,421,75.2,417.1,85.8z"/>
	<path d="M492.2,160.1c-0.1,3.7-0.3,6.8-1.9,9.5c-2.7,4.5-7.5,4.3-9.8-0.5c-2.5-5.2-2.5-10.8-0.2-16.1c2.2-5.1,7.6-5.1,10.2-0.2
		C491.8,155.1,492,157.8,492.2,160.1z"/>
	<path d="M360.2,160.8c0-2.7,0.2-5.5,0-8.2c-0.3-3,0.9-3.3,2.8-3.1c5.1,0.3,7.9,4.7,7.6,12.2c-0.3,7.2-3.4,11-8.5,10.7
		c-1.6-0.1-1.9-0.8-1.8-2.6C360.2,166.8,360.2,163.8,360.2,160.8z"/>
	<path d="M433.5,149.8c1.2,5.1,2.1,9.2,3.1,13.6c-2.1,0-4.1,0-6.3,0C431.3,159,432.3,154.8,433.5,149.8z"/>
</g>
</svg>
