<?xml version="1.0" encoding="utf-8"?>
<!-- Generator: Adobe Illustrator 24.0.0, SVG Export Plug-In . SVG Version: 6.00 Build 0)  -->
<svg version="1.1" id="图层_1" xmlns="http://www.w3.org/2000/svg" xmlns:xlink="http://www.w3.org/1999/xlink" x="0px" y="0px"
	 viewBox="0 0 464.5 162.3" style="enable-background:new 0 0 464.5 162.3;" xml:space="preserve">
<style type="text/css">
	.st0{fill:#192447;}
	.st1{fill:#EF8200;}
	.st2{fill:#020202;}
	.st3{fill:#010101;}
	.st4{fill:#030303;}
	.st5{fill:#040404;}
	.st6{fill:#141414;}
	.st7{fill:#969696;}
	.st8{fill:#6F6F6F;}
	.st9{fill:#BEBEBE;}
	.st10{fill:#FEFEFE;}
	.st11{fill:#F1F1F1;}
	.st12{fill:#FBFBFB;}
	.st13{fill:#FCFCFC;}
	.st14{fill:#FDFDFD;}
	.st15{fill:#F8F8F8;}
</style>
<g>
	<path class="st0" d="M76.1,133.1c-16.5,0-32.8,0-49.3,0c-3,0-3.6-1.2-3.6-4.7c0.2-9.1,0-18.2,0-27.3c0-2.8-0.5-4.7-2.1-6.6
		C14.4,86.3,8,78.3,1.1,69.9c-1.5-1.9-1.5-2.8,0-4.7C8,57.2,14.8,48.7,21.7,40.2c1.2-1.6,1.7-2.8,1.7-5c0-9.7,0-19.8,0-29.5
		c0-2.5,0.5-3.1,2.6-3.1c33.6,0,67.1,0,100.8,0c1.7,0,2.3,0.7,2.3,2.8c0,41.3,0,82.8,0,124.5c0,2.5-0.8,3.1-2.6,3.1
		C109.4,133.1,93,133.1,76.1,133.1z"/>
	<path d="M266.2,40.6c0-11,0-22,0-33c0-2.5,0.2-4.1,2.7-3.5c2.6,0.3,6.1-1.2,7.6,0.7c1.5,1.9,0.5,6.3,0.5,9.4c0,19.8,0,39.6,0,59.2
		c0,2.8,0.5,3.8,2.7,3.5c2.2-0.3,4.6,0,7.1,0c4.3,0,6.6-2.8,6.6-8.5c0-13.5,0-26.7,0-40.2c0-2.8-1-6.9,0.5-8.5
		c1.2-1.6,4.6,0,6.8-0.7c3-0.7,3.6,0.9,3.6,4.4c-0.2,14.2,0,27.9,0,42.1c0,11.3-4.8,17.3-14.2,17.3c-12.7,0-25.2,0-37.9,0
		c-8,0-13.3-6.3-13.3-16.3c0-14.7,0-29.2,0-43.8c0-2.8,0.8-3.8,2.7-3.5c2.1,0.3,3.8,0.3,5.9,0c2.1-0.3,2.3,0.7,2.3,2.8
		c0,15.4,0,30.8,0,46.2c0,6.3,2.1,8.8,6.8,8.8c2.3,0,4.6,0,7.1,0c1.7,0,2.6-0.7,2.3-2.8C266.2,62.9,266.2,51.6,266.2,40.6z"/>
	<path d="M207.3,66.8c5.9,3.8,11,5.9,16.3,8.5c1.7,0.9,2.3,1.6,1.2,3.8c-1.5,2.8-2.3,7.2-4.1,8.5c-2.1,0.9-4.8-2.2-7.4-3.8
		c-4.1-2.2-7.9-5-11.6-8.1c-1.2-0.9-2.3-0.9-3.6,0c-6.3,4.7-13.3,7.8-20.5,10c-1.2,0.3-2.6,0.9-3.6-0.9c-1.2-2.2-1.5-3.1,1-4.4
		c6.3-3.1,12.5-6.9,18.4-11.9c-4.1-4.7-7.4-9.7-10.4-15.1c-1.5-2.8,0.2-3.8,1.2-5.3c1.2-1.9,2.1,0.3,2.6,0.9
		c3.8,3.8,7.4,7.8,11.5,11c1,0.9,1.7,1.6,2.7,0c4.1-5.7,7.4-11.9,8.6-19.4c0.2-1.9,0.2-2.5-1.5-2.5c-8,0-16.5,0-24.7,0
		c-2.1,0-2.3,1.6-2.6,3.1c-4.1,13.8-10.1,26.1-19,35.8c-0.8,0.7-1.5,2.8-2.6,1.6c-1.1-1.2-2.6-2.8-1-5.7c7.6-14.2,12.2-29.8,15-46.2
		c1.5-8.1,1.5-8.1-5.3-8.1c-3,0-6.1,0-9.1,0c-2.3,0-1.7-1.6-1.7-3.1c0-1.9-0.2-3.1,2.1-2.8c4.6,0.3,9.1,0,13.7,0
		c2.1,0,2.7-0.9,2.7-3.1s0.2-4.4,0.2-6.3c0-2.2,0.5-2.5,2.1-2.5c1,0,2.1,0,3,0c6.1,0,6.3,0,5.7,7.6c-0.5,3.8,0.2,4.4,3.3,4.4
		c11.2-0.3,22.6,0,33.8,0c1.7,0,3.8-1.2,3.8,3.1c0,4.1-2.1,2.8-3.6,2.8c-11.6,0-23.7,0-35.3,0c-2.1,0-3,0.3-3,3.1
		c0,1.6-0.2,2.8-0.5,4.4c-1,6.3-1,6.3,4.3,6.3c9.9,0,19.9,0,29.7,0c2.3,0,2.7,0.9,2.6,3.5c-1,11.6-5.3,21.3-12,29.5
		C209.2,66,208.3,66.3,207.3,66.8z"/>
	<path class="st1" d="M76.1,162.3c-16.5,0-33.3,0-49.8,0c-2.3,0-3-0.7-3-3.5c0.2-3.8,0.2-7.8,0-11.6c0-2.5,0.8-3.1,2.6-3.1
		c8,0,16,0,24.1,0c25.2,0,50.3,0,75.5,0c3,0,3.8,0.9,3.6,4.7c-0.2,3.5-0.2,6.9,0,10c0.2,2.8-0.8,3.5-2.7,3.5
		C109.4,162.3,92.7,162.3,76.1,162.3z"/>
	<path d="M351.8,41.5c-1.7,0.7-1,2.2-0.8,3.1c0.5,3.8-0.8,6.6-3,9.1c-2.1,1.9-3.6,4.4-5.3,6.6c-0.8,0.9-1,1.9-0.8,3.1
		c0.5,1.2,1.5,0.7,2.1,0.7c1.5,0,2.7,0.3,4.3,0c2.6-0.7,3,1.2,2.7,3.8c0,1.9-0.5,2.5-2.1,2.2c-0.2,0-0.5,0-0.5,0
		c-4.1-0.7-6.8,0-8,5.9c-1.2,5.7-5.7,8.1-10.4,8.8c-1.2,0-2.6,0-4.1,0c-1.2,0-3,0.7-2.7-2.2c0-2.2-0.2-4.1,2.6-3.8
		c1.5,0.3,3-0.9,4.1-2.8c1-1.6,1.7-3.5,1-5.3c-0.5-1.6-2.3-0.7-3.3-0.7c-3.3,0-6.6-0.3-9.7,0c-2.3,0.3-1.7-1.6-1.7-3.1
		c0-1.5-0.2-3.1,2.1-3.1c3.8,0.3,7.6,0,11.2,0c0.8,0,2.3,0.3,1.7-1.6c-1.5-7.2,3-10.7,6.3-14.7c0-0.3,0.2-0.3,0.2-0.7
		c-3.3-0.9-3.3-0.9-5.9,1.6c-3.6,3.8-7.4,7.6-11,11.3c-0.5,0.7-1.5,2.5-2.3,0.3c-0.5-1.2-2.6-2.8-0.8-4.7c2.6-2.5,4.8-5.3,7.4-7.8
		c-0.2-0.3-0.5-0.9-0.5-1.2c-2.3,0-4.6-0.3-6.8,0c-2.1,0.3-1.7-1.2-1.7-2.8c0-1.2-0.8-3.5,1.5-3.1c2.6,0.3,5.1-0.3,7.6,0
		c3,0.3,5.7-0.7,7.1-4.1c0.5-0.9,1.2-1.9,2.1-2.8c-0.5-1.2-1.5-0.7-2.3-0.7c-4.3,0-8.6-0.3-13.3,0c-2.6,0.3-3.3-0.9-3-4.1
		c0-1.6,0.5-2.2,1.7-2.2c2.6,0,5.1,0,7.6,0c1.2,0,2.1-0.3,1.7-1.9v-0.3c0.2-7.6,0.2-7.8-5.9-7.8c-2.1,0-2.7-0.7-2.7-3.1
		c0-2.8,1-3.1,2.7-2.8c0.5,0,1.2,0,1.7,0c4.1,0,4.1,0,4.1-5c0-2.2,0.5-2.8,2.3-2.8c1,0,2.3,0,3.3,0c4.8,0,4.8,0,5.3,5.7
		c0,0.9-0.2,2.2,0.8,1.9c3.3-0.9,6.6,1.9,9.9-2.5c1.5-2.2,4.6,2.8,6.8,4.1c1.5,0.9,0.2,1.9,0,2.5c-1.7,3.5-3.8,6.6-5.7,9.7
		c-0.2,0.7-0.5,0.9-1,1.9c3.3-0.3,2.3,2.5,2.3,4.4c0,2.8-2.1,1.9-3,1.6c-4.8-0.9-5.9,4.4-9.5,7.8c4.8,0,8.9,0,12.7,0
		C351.8,40.9,351.8,41.2,351.8,41.5z"/>
	<path d="M448.7,71.7c-11.2,0-22.6,0-33.8,0c-1.5,0-1.5,0.9-1.5,2.2c0,2.8,0,5.7,0,8.5c0,2.2-0.5,2.8-2.3,2.8c-2.3,0-4.6,0-6.6,0
		c-1.2,0-2.1-0.3-2.1-2.2c0-14.2,0-28.6,0-42.7c0-1.9,0.8-2.2,2.1-2.2c17.5,0,35.3,0,52.8,0c1.5,0,2.1,0.7,2.1,2.5
		c0,10,0,20.1,0,30.1c0,8.1-5.3,14.2-12,14.4c-1.2,0-2.6-0.3-3.6,0c-2.6,0.7-3.3-0.7-3-3.8c0-1.9,0.5-2.2,2.1-2.2
		C446.3,78.7,448.2,76.7,448.7,71.7z"/>
	<path d="M351.8,41.5c-0.2-0.3-0.2-0.3-0.5-0.7c-1-1.2-0.2-2.2,0.2-3.5c4.6-11,7.4-22.6,8.6-34.7c0.2-2.2,0.8-2.5,2.6-2.5
		c2.3,0,4.6,0.3,6.6,0c1.7,0,2.1,0.7,1.7,2.5c-0.5,4.1-1.2,8.1-2.1,12.6c5.3,0,10.4,0,15.8,0c0.8,0,2.1-0.9,2.3,0.9
		c0,1.6,0.5,4.4-0.2,4.4c-2.6,0.7-1.7,2.8-1.7,4.4c-0.5,13.2-3.3,25.4-9.1,36.6c-0.8,1.2-0.5,2.2,0.2,3.1c3,3.5,6.3,6.6,10.1,9.1
		c1.5,0.9,1.5,1.6,0.8,3.5c-1.2,2.5-2.3,5-3.3,7.6c-0.8,1.9-1.5,1.9-2.7,0.9c-4.8-3.1-9.1-7.6-12.7-12.6c-4.1,4.7-8.4,8.5-13.3,11.9
		c-1,0.7-2.1,1.6-2.7-0.3c-0.5-1.6-2.1-2.8-0.2-4.7c3.8-4.1,7.1-8.8,9.9-13.5c0.8-0.9,1.5-2.2,0.8-3.8c-2.7-7.2-4.3-15.1-5.1-22.9
		c-1.5,0.3-2.1,1.6-2.7,2.5C353.3,44.4,352.2,44.4,351.8,41.5z"/>
	<path d="M413.3,26.4c11,0,21.6,0,32.1,0c0.5-1.2-0.2-1.9-0.8-2.5c-1.5-2.2-0.8-3.8,0.5-5.3c1.5-2.2,2.3,0,3,0.7
		c4.6,3.5,9.7,5,15.2,5.7c-1.7,3.8-3,7.2-4.6,11c-0.5,1.2-1.5,0.9-2.1,0.3c-6.8-5-14.5-3.1-21.8-3.5c-10.1-0.3-20.1,0-30.2,0
		c-1,0-2.1,0.3-2.7-0.7c-2.1-2.8-2.1-3.8,0.8-5.7c3.6-2.8,6.8-5.9,9.9-10.7c-4.8,0-9.1,0-13.5,0c-2.1,0-2.6-0.7-2.6-3.1
		c0-2.8,0.8-3.1,2.6-2.8c7.6,0,15.4,0,23.2,0c2.3,0,3-0.7,2.7-3.5c-0.2-4.7,0-4.7,4.1-4.7c0.5,0,1,0,1.5,0c5.1,0,5.1,0,5.3,5.9
		c0,2.2,1,2.2,2.3,2.2c7.6,0,15.4,0,23.2,0c1.7,0,3.3-0.3,3,3.1c0,3.1-1.2,2.8-3,2.8c-11.6,0-23.7,0-35.3,0c-1.7,0-3,0.7-4.3,2.2
		C419.9,20.8,416.5,23.3,413.3,26.4z"/>
	<path class="st2" d="M456,120.2c0-4.7,0-9.4,0-14.2c0-1.2,0-2.5,1.5-2.2c1.5,0,1.7,0.7,1.7,2.2c0,7.2,0,14.4,0,21.6
		c0,1.2,0.8,2.8-1,3.1c-1.5,0-2.6,0-3.6-1.9c-2.3-5.7-5.1-11.3-7.6-17.3c-1.2,1.6-0.2,3.5-0.5,5c0,3.8,0,7.8,0,11.6
		c0,1.6,0,2.5-1.7,2.5s-1.7-0.9-1.7-2.5c0-7.2,0-14.4,0-21.6c0-0.9-0.8-2.8,0.8-2.8c1.2,0,2.7-0.7,3.6,1.6
		c2.6,5.9,5.1,11.9,7.9,17.6C457.1,122.7,456.2,121.5,456,120.2z"/>
	<path class="st2" d="M253.6,115.2c0,4.4,0,9.1,0,13.5c0,1.9-0.5,2.2-1.7,2.5c-1.5,0-1.7-0.9-1.7-2.5c0-7.2,0-14.4,0-21.6
		c0-0.9-0.8-2.8,0.8-3.1c1.2-0.3,2.7-0.7,3.8,1.6c2.6,5.7,5.1,11.3,7.6,17c1.5-0.3,0.8-1.6,0.5-2.2c0-4.7,0-9.4,0-14.2
		c0-1.6,0.2-2.2,1.5-2.2c1.5,0,2.1,0.7,1.7,2.2c0,7.2,0,14.7,0,22c0,0.9,0.8,2.8-1,2.8c-1.2,0-2.6,0.7-3.3-1.6
		c-2.6-5.9-5.1-11.6-7.6-17.3C252.5,112.6,253.6,114.2,253.6,115.2z"/>
	<path class="st3" d="M419.4,117.1c0-10,5.7-16,12.5-13.5c5.7,2.2,8.4,11,6.1,19.4c-1.7,6.6-6.8,9.7-12,7.6
		C421.8,129.3,419.4,124.3,419.4,117.1z"/>
	<path class="st3" d="M319.2,103.9c9.7,0,14.5,8.5,11,19.8c-1.5,4.7-4.3,6.9-8.4,7.2c-7.1,0.7-7.1,0.7-7.1-8.1c0-5,0.2-10.4,0-15.4
		c-0.2-3.1,0.8-4.4,3-3.8C318.2,103.9,318.7,103.9,319.2,103.9z"/>
	<path class="st2" d="M218.2,117.4c0-3.8,0-7.6,0-11.3c0-1.9,0.2-2.5,1.7-2.5c1.5,0,2.1,0.7,1.7,2.2c0,0.3,0,0.7,0,0.7
		c0,8.5,0.8,9.1,7.6,7.8c1.2-0.3,1.5-0.9,1.5-2.2c0-2.2,0-4.4,0-6.6c0-1.9,0.5-2.2,1.7-1.9c1,0,2.1,0,2.1,1.9c0,7.8,0,15.4,0,23.2
		c0,2.2-1,1.9-2.1,2.2c-1.5,0-1.5-0.9-1.5-2.2c0-2.5,0-5.3,0-7.8c0-1.6-0.2-2.5-1.7-2.2h-0.2c-7.1-0.3-7.1-0.3-7.1,8.5
		c0,1.2,1,3.8-1.5,3.8c-1.5,0-2.3-0.3-2.1-2.5C218.2,124.9,218.2,121.1,218.2,117.4z"/>
	<path class="st4" d="M162.8,113.3c0,3.1,0,5.9,0,9.1c0.2,3.1,1.5,5.3,4.1,5.3c2.7,0.3,4.3-1.9,4.8-5c0.5-5.3,0.2-10.4,0.2-15.7
		c0-1.2-0.5-3.1,1.5-3.1s2.1,0.9,2.1,2.8c-0.2,5.3,0.2,11-0.5,16.3c-0.8,5.7-3.3,8.5-8,8.5c-4.6,0-7.4-3.1-7.9-8.8
		c-0.5-5.7,0-11.3-0.2-17c0-1.9,0.8-1.9,1.7-1.9s2.1,0,1.7,1.9C162.7,108.3,162.7,110.8,162.8,113.3
		C162.7,113.3,162.8,113.3,162.8,113.3z"/>
	<path class="st3" d="M351.6,113.6c0,3.1,0.2,6.6,0,9.7c-0.8,5.7-3.3,8.1-7.6,8.1c-4.6,0-7.4-2.5-8-7.8c-0.8-5.9-0.2-12.3-0.2-18.2
		c0-2.2,1.5-1.2,2.3-1.2c1.2-0.3,1.5,0.7,1.5,1.9c0,4.4,0,8.5,0,12.8c0,0.9,0,1.9,0,3.1c0.2,3.8,2.1,5.9,4.3,5.9
		c2.6,0,4.6-2.2,4.6-5.9c0.2-5,0-9.7,0-14.7c0-1.6-0.5-3.1,1.7-3.1c2.3,0,1.7,1.6,1.7,3.1C351.8,109.2,351.8,111.4,351.6,113.6
		C351.8,113.6,351.8,113.6,351.6,113.6z"/>
	<path class="st4" d="M296.7,117.7c0-3.8,0-7.6,0-11.3c0-1.9,0.2-2.8,2.1-2.5c3,0.3,6.3,0,9.5,0c1.2,0,1.7,0,1.7,1.9
		s-0.8,1.9-2.1,1.9c-1.3,0-2.6,0-4.1,0c-3.6,0-4.6,1.9-3.6,5.9c0.2,1.2,1,1.2,1.7,1.2c1.5,0,3.3,0,4.8,0c1,0,1.5,0.3,1.5,1.6
		c0,1.2-0.2,2.2-1.5,2.2c-1,0-2.3,0.3-3.3,0c-2.7-0.7-3.3,0.9-3.6,4.4c-0.2,3.8,1,4.7,3.8,4.4c1.5-0.3,3.3,0,4.8,0
		c1.2,0,1.2,0.9,1.2,1.9c0,1.2-0.2,1.9-1.2,1.9c-3.6,0-7.1,0-10.7,0c-1.5,0-1.5-1.2-1.5-2.5C296.7,124.9,296.7,121.1,296.7,117.7z"
		/>
	<path class="st3" d="M373.8,130.6c2.3-8.5,4.6-16.6,6.6-24.8c0.5-1.9,1.5-1.9,2.7-1.9c1.2,0,2.1,0,2.6,1.9
		c2.1,7.8,4.1,15.4,6.1,23.2c0.2,0.7,1,1.9-0.2,2.2c-1,0.3-2.6,0.9-3.3-0.7c-0.2-0.3-0.2-0.7-0.2-0.9c-1.7-5.9-2.3-6.6-7.6-5.7
		c-2.1,0.3-1.7,2.5-2.1,3.8C378,130.3,377,131.8,373.8,130.6z"/>
	<path class="st2" d="M206.6,131.5c-2.7,0-4.8-0.9-6.6-2.5c-0.8-0.7-1.7-1.2-0.8-2.8c0.8-1.2,1.2-1.9,2.7-0.7
		c1.7,1.6,3.8,2.5,6.3,1.6c1-0.3,2.1-1.2,2.3-2.8c0.2-1.6-0.2-2.8-1.5-3.8c-1.5-0.9-3-1.9-4.6-2.5c-3.8-2.2-5.3-5.3-4.6-9.4
		c0.8-3.8,4.6-6.3,8.4-5.7c1.2,0.3,2.7,0.7,3.8,1.9c0.5,0.7,2.1,0.9,1,2.5c-0.8,1.2-1.2,2.2-2.6,0.9c-1.2-1.2-3-1.6-4.6-1.2
		c-1.2,0.3-2.3,1.2-2.6,2.8c-0.2,1.6,0.5,2.5,1.5,3.5c1.2,0.9,2.7,1.6,4.1,2.2c4.3,2.2,5.9,5.3,5.1,9.7
		C213.4,129,210.4,131.5,206.6,131.5z"/>
	<path class="st3" d="M271.9,117.4c0-3.8,0-7.2,0-11c0-1.9,0.2-2.5,2.1-2.5c3,0.3,6.3,0,9.5,0c1,0,2.1-0.3,2.1,1.9
		c0,1.9-0.8,1.9-1.7,1.9c-2.1,0-4.1,0-6.1,0c-2.6-0.3-1.7,2.2-1.7,3.5c0,1.6-1.2,4.1,1.7,4.1c1.5,0,3,0,4.6,0c1,0,1.7,0,1.7,1.6
		s-0.5,2.2-1.7,2.2c-0.8,0-1.5,0-2.6,0c-3-0.7-4.1,0.9-3.8,4.7c0,3.1,0.5,4.4,3,3.8c1.5-0.3,3.3,0,4.8,0c1,0,2.1,0,2.1,1.9
		c0,1.9-0.8,1.9-1.7,1.9c-3.3,0-6.6,0-10.1,0c-1.5,0-1.7-0.7-1.7-2.2C271.9,124.9,271.9,121.1,271.9,117.4z"/>
	<path class="st2" d="M356,117.7c0-7.8,3-13.2,8.4-14.2c2.3-0.3,4.3,0,6.3,1.9c0.8,0.7,2.1,1.2,0.8,2.8c-0.8,0.9-1,1.6-2.3,0.7
		c-4.1-2.8-7.6-0.9-8.9,4.4c-0.8,3.1-0.8,6.3,0,9.1c1.2,5,5.3,6.9,8.9,4.1c1.2-0.9,1.7-1.2,2.7,0.3c1.2,1.9-0.2,2.5-1,3.1
		c-2.7,2.5-6.1,2.8-9.1,0.9c-3.8-2.2-5.3-6.3-5.9-11C356,119,356,118.3,356,117.7z"/>
	<path class="st2" d="M397.5,119.2c0-1.6,0-3.1,0-5c0-2.2,0.5-4.7-0.2-6.3c-0.8-1.6-3-0.7-4.6-0.7c-1.2,0-1.5-0.9-1.5-2.2
		c0-1.2,0.2-1.9,1.2-1.9c4.6,0,9.1,0,13.7,0c1.2,0,1.5,0.7,1.5,2.2c0,1.2-0.5,1.6-1.5,1.9c-1.5,0-3.8-0.7-4.6,0.3
		c-1.2,1.6-0.5,4.4-0.5,6.9c0,4.4,0,9.1,0,13.5c0,1.6,0,2.8-1.7,2.8s-1.7-1.2-1.7-2.8C397.5,125.2,397.5,122.1,397.5,119.2z"/>
	<path d="M244.5,117.4c0,3.8,0,7.6,0,11.3c0,1.9-0.2,2.5-1.7,2.2c-1.5,0-1.7-0.3-1.7-2.2c0-7.6,0-15.4,0-22.9c0-1.6,0.2-2.2,1.7-2.2
		c1.2,0,2.1,0,2.1,2.2C244.5,109.8,244.5,113.6,244.5,117.4z"/>
	<path class="st5" d="M415,117.1c0,3.8,0,7.8,0,11.6c0,1.9-0.2,2.5-1.7,2.5s-1.7-0.7-1.7-2.2c0-7.6,0-15.1,0-22.9
		c0-1.6,0.2-2.2,1.5-2.2c1.2,0,2.1,0,2.1,2.2C415,109.5,415,113.3,415,117.1z"/>
	<path class="st6" d="M185.9,118.7c1.2,1.2,3.6-1.6,3.8,1.9c0,3.8-2.6,1.9-3.8,1.9c-1.2,0-4.1,1.9-3.8-1.6
		C182.2,117.1,184.7,119.9,185.9,118.7z"/>
	<path class="st7" d="M253.6,115.2c-0.8-1.6-0.5-3.1-0.5-4.7c0.8,0.7,1,0.9,1,1.9C253.4,113,253.8,114.2,253.6,115.2z"/>
	<path class="st8" d="M456,120.2c0.2,0.9,0.5,2.2,0.5,3.1c0,0.3,0,0.9-0.5,0.9c-0.2,0-0.5-0.7-0.5-0.9
		C456.2,122.4,455.8,121.1,456,120.2z"/>
	<path class="st9" d="M262.8,120.2c0.2,0.9,0.2,1.6,0.5,2.5c0,0.3,0.2,1.2-0.2,1.2c-0.5,0-0.8-0.7-0.8-1.2
		C262.5,121.8,262.8,121.1,262.8,120.2z"/>
	<path class="st10" d="M114.3,67.9c0,14.4,0,28.9,0,43c0,2.8-0.2,3.8-2.7,3.8c-23.7,0-47.1,0-70.6,0c-2.3,0-3-0.7-2.7-3.5
		c0.2-6.3,0-12.6,0-18.8c0-2.2-0.5-3.8-1.7-5.3c-4.8-5.7-9.5-11.6-14.2-17.6c-1.2-1.6-1.5-2.5,0-4.4c4.8-5.7,9.5-11.6,14.2-17.6
		c1.2-1.6,1.7-3.1,1.7-5.7c0-6.3,0-12.3,0-18.5c0-2.8,0.2-3.8,2.7-3.5c23.7,0,47.4,0,70.9,0c2.1,0,2.7,0.7,2.7,3.5
		C114.3,38.7,114.3,53.2,114.3,67.9z"/>
	<path class="st11" d="M343.6,17.7c-2.1,3.5-3.6,6.6-5.3,9.7c-0.2,0-0.5,0-0.5-0.3c0-1.2,0-2.5,0-3.8
		C337.9,16.7,337.9,16.7,343.6,17.7z"/>
	<path class="st12" d="M431.1,44c5.1,0,10.4,0.3,15.4,0c3,0,2.1,2.5,2.1,4.1c0,1.9,0.5,3.8-2.3,3.8c-10.4-0.3-20.5-0.3-31.1,0
		c-3,0-2.1-2.5-2.3-4.1c0-1.9-0.5-3.8,2.3-3.8C420.7,44.4,425.7,44,431.1,44z"/>
	<path class="st13" d="M430.8,65.7c-5.1,0-10.4-0.3-15.4,0c-2.3,0-2.3-1.2-2.1-3.1c0.2-1.9-1.5-4.7,2.1-4.7c10.4,0,21.1,0,31.5,0
		c1.5,0,1.7,0.3,2.1,2.2c0.2,5.7,0.2,5.7-4.3,5.7C439.9,65.7,435.5,65.7,430.8,65.7z"/>
	<path class="st14" d="M368.5,52.5c-3-6.6-4.6-13.2-6.1-19.4c-0.2-1.2,0.2-1.9,0.5-2.8c0.8-1.6,1.7-2.8,2.1-4.4
		c1-4.1,3.3-4.7,6.3-4.7c2.3,0,2.7,0.9,2.7,3.5C373.6,34.3,372.1,43.4,368.5,52.5z"/>
	<path class="st14" d="M434.9,116.8c0,3.1-0.2,5.9-1.7,8.1c-2.3,3.8-6.6,3.8-8.6-0.3c-2.3-4.4-2.3-9.4-0.2-13.8s6.8-4.4,9.1-0.3
		C434.6,112.4,434.9,114.9,434.9,116.8z"/>
	<path class="st14" d="M318.2,117.4c0-2.5,0.2-4.7,0-7.2c-0.2-2.5,0.8-2.8,2.6-2.8c4.6,0.3,6.8,4.1,6.6,10.7c-0.2,6.3-3,9.4-7.6,9.4
		c-1.5,0-1.7-0.7-1.5-2.2C318.2,122.4,318.2,119.9,318.2,117.4z"/>
	<path class="st15" d="M383,107.6c1,4.4,1.7,7.8,2.7,11.6c-1.7,0-3.6,0-5.7,0C381.2,115.8,382,112.1,383,107.6z"/>
</g>
</svg>
