<svg id="图层_1" data-name="图层 1" xmlns="http://www.w3.org/2000/svg" viewBox="0 0 225.91 94.43"><title>Logo</title><path d="M172.32,0.48v10c0,5-3.32,7.54-7.44,7.39-3.81-.1-7.05-2.54-7.05-7.39v-10h2.71v10c0,3.1,1.81,4.78,4.34,4.88,2.73,0.15,4.73-1.63,4.73-4.88v-10h2.71Z" transform="translate(-36.08 0.45)" style="fill:#080059"/><path d="M175.78,9.34h8.88v2.27h-8.88V9.34Z" transform="translate(-36.08 0.45)" style="fill:#080059"/><path d="M198.55,4.24a5.19,5.19,0,0,0-4.22-1.9c-2.29,0-4,1-4,2.59s1.9,2.12,4.15,2.44c3.51,0.49,6.86,1.46,6.86,5.29s-3.51,5.27-7.08,5.27c-3.27,0-5.78-1-7.34-3.88l2-1.37a5.91,5.91,0,0,0,5.32,2.81c2,0,4.32-.68,4.32-2.83,0-1.85-2-2.49-4.37-2.81-3.39-.46-6.61-1.32-6.61-5S191.18,0,194.25,0c2.46,0,4.93.59,6.37,2.88Z" transform="translate(-36.08 0.45)" style="fill:#080059"/><path d="M216.16,17.54v-7.1h-9v7.1H204.4V0.46h2.73V7.9h9V0.46h2.71V17.54h-2.71Z" transform="translate(-36.08 0.45)" style="fill:#080059"/><path d="M223.12,17.54V0.46h2.71V17.54h-2.71Z" transform="translate(-36.08 0.45)" style="fill:#080059"/><path d="M241.85,12.61V0.46h2.73V17.54h-2.07L232.83,5.48V17.54h-2.76V0.46h2.1Z" transform="translate(-36.08 0.45)" style="fill:#080059"/><path d="M261.44,17.54H248.83V0.46h12.54V3.12h-9.81V7.73H261v2.54h-9.42v4.59h9.88v2.68Z" transform="translate(-36.08 0.45)" style="fill:#080059"/><path d="M158,46.82V29.76h12.08v2.66h-9.34v5.2h8.88v2.54h-8.88v6.66H158Z" transform="translate(-36.08 0.45)" style="fill:#080059"/><path d="M187.54,29.76v10c0,5-3.32,7.54-7.44,7.39-3.81-.1-7.05-2.54-7.05-7.39v-10h2.71v10c0,3.1,1.81,4.78,4.34,4.88,2.73,0.15,4.73-1.63,4.73-4.88v-10h2.71Z" transform="translate(-36.08 0.45)" style="fill:#080059"/><path d="M203.35,41.89V29.74h2.73V46.82H204l-9.69-12.05V46.82h-2.76V29.74h2.1Z" transform="translate(-36.08 0.45)" style="fill:#080059"/><path d="M216.8,29.74c5.83,0,8.49,4.17,8.56,8.39s-2.59,8.69-8.56,8.69h-6.47V29.74h6.47ZM213,44.18h3.76c4.17,0,5.93-3.07,5.86-6.08s-1.83-5.76-5.86-5.76H213V44.18Z" transform="translate(-36.08 0.45)" style="fill:#080059"/><path d="M164.52,65.93h10v2.32a17.24,17.24,0,0,1-3.77,5.13,19.18,19.18,0,0,0,5.45,1.76,10.64,10.64,0,0,0-1.6,2.57,28.51,28.51,0,0,1-6.09-2.48,28.74,28.74,0,0,1-6,2.57A10.31,10.31,0,0,0,161,75.47a18.21,18.21,0,0,0,5.29-2.08,25.82,25.82,0,0,1-2.56-3.21l1.84-1.6a13.7,13.7,0,0,0,3,3.37,15,15,0,0,0,3-3.61h-7.69a20.12,20.12,0,0,1-5.29,8.82,16.4,16.4,0,0,0-1.44-2.56q3.61-3.85,5-10.74h-4.41v-2.4h4.81q0.16-1.12.24-2.32h2.89q-0.08,1.2-.24,2.32h10.5v2.4H165Q164.76,65,164.52,65.93Z" transform="translate(-36.08 0.45)" style="fill:#080059"/><path d="M203.5,77.71h-2.73V76.19H187V62.72h2.73v11h4.09V59.12h2.89V73.71h4.09v-11h2.73v15Z" transform="translate(-36.08 0.45)" style="fill:#080059"/><path d="M233.35,72.74q-0.8,1.12-1.44,2.08a32.29,32.29,0,0,1-2.81-1.92v1.28h-4v1.12H232v1.84H215.63V75.31h6.89V74.19h-4.09V73a12.85,12.85,0,0,1-2.73,1.84q-0.24-.32-0.72-1t-0.72-1a15.75,15.75,0,0,0,4-2.24h-3.77v-2h3.37V62.64h-2.81V60.72h2.81V59h2.56v1.68h6.73V59h2.65v1.68h2.73v1.92h-2.73V68.5h3.29v2h-3.77A18.84,18.84,0,0,0,233.35,72.74Zm-10.82-.56V70.82h2.56v1.36h3.13l-0.56-.56a10.56,10.56,0,0,1-1.12-1.12h-5.45A10.82,10.82,0,0,1,220,71.62l-0.56.56h3.13Zm-2.08-9.54v1h6.73v-1h-6.73Zm0,2.48v1h6.73v-1h-6.73Zm0,2.4v1h6.73v-1h-6.73Z" transform="translate(-36.08 0.45)" style="fill:#080059"/><path d="M243.4,77.15V75h4.09l-0.72-1q-0.72-.88-1.12-1.44l2.16-1.28q1,1.12,2.08,2.48L248,75h2.89V71.22h-6V68.9h6v-1.6h-3.61V65.77l-1.12.64a18.82,18.82,0,0,1-1.84,1.12l-1-1.44a10.07,10.07,0,0,0-.64-1q5.77-2.48,8.42-5.93h3.93l-0.88.88A17.92,17.92,0,0,0,262,64.65q-0.56.88-1.44,2.4a0.23,0.23,0,0,0-.08.16q-0.64-.32-1.84-1a11,11,0,0,0-1.12-.56v1.6h-3.69v1.6h6v2.32h-2.89l2.32,1.2q-1,1.36-2,2.56h4.09v2.16h-18Zm9.06-15.55a31.77,31.77,0,0,1-4,3.37h7.94A17.65,17.65,0,0,1,252.45,61.6Zm4.41,9.62h-3V75h3l-1.84-1q0.32-.48,1-1.36T256.86,71.22Z" transform="translate(-36.08 0.45)" style="fill:#080059"/><path d="M59.44,77.12V73.18a19.48,19.48,0,0,1-4.71,3.7,10.65,10.65,0,0,1-4.79,1,10.14,10.14,0,0,1-7.37-2.66,9.48,9.48,0,0,1-2.74-7.14V52.63a4.17,4.17,0,0,0-.73-2.79,6.12,6.12,0,0,0-3-1.34V47.63h14V48.5a5.94,5.94,0,0,0-3,1.34,4.59,4.59,0,0,0-.75,3V69.36a5.88,5.88,0,0,0,1.48,4.25,5.36,5.36,0,0,0,4.06,1.54q3.64,0,7.58-4.09V52.63a4.17,4.17,0,0,0-.71-2.78,6.27,6.27,0,0,0-3-1.35V47.63H69.63V48.5a5.49,5.49,0,0,0-2.91,1.29q-0.78.85-.78,3.43v18.9a4.19,4.19,0,0,0,.71,2.78,6.17,6.17,0,0,0,3,1.35v0.86H59.44Z" transform="translate(-36.08 0.45)" style="fill:#080059"/><rect x="36.6" y="83.65" width="78.51" height="10.78" style="fill:#080059"/><path d="M80.16,66a31.12,31.12,0,0,1-5.42-3.78,9.2,9.2,0,0,1-1.68-2.3V70.61a9.66,9.66,0,0,0,2.61,4.57A7.47,7.47,0,0,0,81,77.24,6.46,6.46,0,0,0,85.07,76a3.77,3.77,0,0,0,1.6-3.12,4.77,4.77,0,0,0-1-2.9Q84.62,68.62,80.16,66Z" transform="translate(-36.08 0.45)" style="fill:#080059"/><path d="M73.06-.45V51.47a8.34,8.34,0,0,1,1.7-2.2,9.76,9.76,0,0,1,6.93-2.51,14,14,0,0,1,3.14.43,14,14,0,0,0,2.6.41A2.36,2.36,0,0,0,89,46.76h0.89v8.08H89a9.83,9.83,0,0,0-3.07-4.51,7,7,0,0,0-4.5-1.83,5.44,5.44,0,0,0-3.56,1.2,3.67,3.67,0,0,0-1.47,2.94,4,4,0,0,0,.38,1.67,5.25,5.25,0,0,0,1.11,1.55,39.36,39.36,0,0,0,4.7,3.19,55.32,55.32,0,0,1,5.22,3.44A12.89,12.89,0,0,1,90.07,65a8.68,8.68,0,0,1,1.63,5.09,8,8,0,0,1-2.88,6.5,10.34,10.34,0,0,1-1,.72h6.71a4.77,4.77,0,0,0,3-1.34,6,6,0,0,0,.79-3.62V52.59a3.92,3.92,0,0,0-.75-2.68,6.77,6.77,0,0,0-3.09-1.46V47.56h21.7l0.61,5.75H116a6.6,6.6,0,0,0-2.09-3.08,5.71,5.71,0,0,0-3.44-.93h-5.28V61.85h4.75A4.84,4.84,0,0,0,113,61a6,6,0,0,0,1.65-3.09h0.89v9.51h-0.89a4.66,4.66,0,0,0-1.46-2.95,5.17,5.17,0,0,0-3.3-.89h-4.75V73a4.4,4.4,0,0,0,.82,3,5,5,0,0,0,2.94,1.28H150.8V-0.45H73.06Z" transform="translate(-36.08 0.45)" style="fill:#080059"/></svg>