<?xml version="1.0" encoding="utf-8"?>
<!-- Generator: Adobe Illustrator 19.2.1, SVG Export Plug-In . SVG Version: 6.00 Build 0)  -->
<svg version="1.1" id="图层_1" xmlns="http://www.w3.org/2000/svg" xmlns:xlink="http://www.w3.org/1999/xlink" x="0px" y="0px"
	 viewBox="0 0 200 58.4" style="enable-background:new 0 0 200 58.4;" xml:space="preserve">
<style type="text/css">
	.st0{fill:#FFFFFF;}
</style>
<path class="st0" d="M92.2,32.6c0,0.5-0.3,0.9-0.7,0.9H63.4c-0.4,0-0.7-0.4-0.7-0.9v-1.4c0-0.5,0.3-0.9,0.7-0.9h28.1
	c0.4,0,0.7,0.4,0.7,0.9V32.6z"/>
<path class="st0" d="M59.5,31.5c0,1.1,0.9,1.9,1.9,1.9h3.3c1.1,0,1.9-0.9,1.9-1.9V5.6h-7.2v25.9C59.4,31.5,59.5,31.5,59.5,31.5z
	 M88.2,31.5c0,1.1,0.9,1.9,1.9,1.9h3.3c1.1,0,1.9-0.9,1.9-1.9V5.6h-7.2v25.9H88.2z M73.8,31.5c0,1.1,0.9,1.9,1.9,1.9H79
	c1.1,0,2-0.9,2-1.9V3h-7.2V31.5z M32.8,13.3c0,7.9,6.4,14.3,14.3,14.3h1v5.9h-1c-11.1,0-20.2-9-20.2-20.2
	C26.9,13.3,32.8,13.3,32.8,13.3z M17.7,3v23.3c0,3.1-3.6,7.2-3.6,7.2h7.2c0,0,3.6-3.2,3.6-7.2V3H17.7z"/>
<path class="st0" d="M50,7.2c0,0.9-0.7,1.6-1.6,1.6H15.7c-0.9,0-1.6-0.7-1.6-1.6s0.7-1.6,1.6-1.6h32.7C49.3,5.6,50,6.4,50,7.2z
	 M46.5,11.6h-18c-0.9,0-1.6,0.7-1.6,1.6c0,0.3,0.1,0.6,0.3,0.9l0.3,0.3c0.3,0.2,0.6,0.4,1,0.4h18c0.4,0,0.8-0.1,1-0.4l0.3-0.3
	c0.2-0.2,0.3-0.6,0.3-0.9C48.1,12.3,47.4,11.6,46.5,11.6L46.5,11.6z"/>
<path class="st0" d="M42.2,13.3c0,7.9-6.4,14.3-14.3,14.3h-1v5.9h1c11.1,0,20.2-9,20.2-20.2C48.1,13.3,42.2,13.3,42.2,13.3z
	 M164.4,31.1c0,0.7,0.9,1.2,1.9,1.2h3.3c1.1,0,1.9-0.5,1.9-1.2V13.2h-7.2L164.4,31.1L164.4,31.1L164.4,31.1z"/>
<path class="st0" d="M186,14.8c0,0.9-0.7,1.6-1.6,1.6h-32.7c-0.9,0-1.6-0.7-1.6-1.6s0.7-1.6,1.6-1.6h32.7
	C185.3,13.2,186,13.9,186,14.8z M186,20.5c0,0.9-0.7,1.6-1.6,1.6h-32.7c-0.9,0-1.6-0.7-1.6-1.6c0-0.9,0.7-1.6,1.6-1.6h32.7
	C185.3,18.9,186,19.6,186,20.5z M186,31.9c0,0.9-0.7,1.6-1.6,1.6h-32.7c-0.9,0-1.6-0.7-1.6-1.6c0-0.9,0.7-1.6,1.6-1.6h32.7
	C185.3,30.3,186,31,186,31.9z"/>
<path class="st0" d="M160.1,25.4c-0.3-0.6-0.8-1-1.5-1h-5.1l0.5,1l1.1,2.2l2,4h6.1L160.1,25.4z M175.9,25.4c0.3-0.6,0.8-1,1.5-1h5.1
	l-0.5,1l-1.1,2.2l-2,4h-6.1L175.9,25.4z M163.7,3h-6.3c-0.5,0-0.9,0.2-1.2,0.6l-6.1,8h8.3c0.4,0,0.8-0.1,1-0.4l0.2-0.3l0.1-0.1
	l3.5-4.6h6.1V3C169.3,3,163.7,3,163.7,3z"/>
<path class="st0" d="M172.4,3h6.3c0.5,0,0.9,0.2,1.2,0.6l6.1,8h-8.3c-0.4,0-0.8-0.1-1-0.4l-0.2-0.3l-0.1-0.1l-3.5-4.6h-6.1V3
	C166.8,3,172.4,3,172.4,3z"/>
<g>
	<path class="st0" d="M133,26.3c0.3,0.6,0.8,1,1.5,1h5.6l-0.5-1l-1.1-2.2l-2-4h-6.6L133,26.3z M112.5,26.3c-0.3,0.6-0.8,1-1.5,1
		h-5.6l0.5-1l1.1-2.2l2-4h6.5L112.5,26.3z M119.1,31.3c0,0.3,0.9,0.5,1.9,0.5h3.3c1.1,0,1.9-0.2,1.9-0.5v-7.7H119v7.7H119.1z
		 M140.7,7.2c0,0.9-0.7,1.6-1.6,1.6h-32.7c-0.9,0-1.6-0.7-1.6-1.6s0.7-1.6,1.6-1.6h32.7C140,5.6,140.7,6.4,140.7,7.2z M132.9,11.8
		c0,0.9-0.7,1.6-1.6,1.6h-17.2c-0.9,0-1.6-0.7-1.6-1.6s0.7-1.6,1.6-1.6h17.2C132.2,10.2,132.9,10.9,132.9,11.8L132.9,11.8z
		 M132.9,16.4c0,0.9-0.7,1.6-1.6,1.6h-17.2c-0.9,0-1.6-0.7-1.6-1.6c0-0.9,0.7-1.6,1.6-1.6h17.2C132.2,14.8,132.9,15.5,132.9,16.4
		L132.9,16.4z"/>
	<path class="st0" d="M140.7,21c0,0.9-0.7,1.6-1.6,1.6h-32.7c-0.9,0-1.6-0.7-1.6-1.6c0-0.9,0.7-1.6,1.6-1.6h32.7
		C140,19.4,140.7,20.1,140.7,21z M132,27.3c0,0.9-0.7,1.6-1.6,1.6H115c-0.9,0-1.6-0.7-1.6-1.6c0-0.9,0.7-1.6,1.6-1.6h15.4
		C131.3,25.7,132,26.4,132,27.3z M140.7,31.9c0,0.9-0.7,1.6-1.6,1.6h-32.7c-0.9,0-1.6-0.7-1.6-1.6c0-0.9,0.7-1.6,1.6-1.6h32.7
		C140,30.3,140.7,31,140.7,31.9z"/>
	<path class="st0" d="M115.6,21V3h-7.2v18H115.6z M137.1,21V3h-7.2v18H137.1z"/>
</g>
<g>
	<path class="st0" d="M15.6,41.1h1.7v9.3c0,1.2,0.4,1.9,2.7,1.9h5.8c2.3,0,2.7-0.7,2.7-1.9v-9.3h1.7v9.3c0,2.5-1.3,3.2-4.4,3.2h-5.7
		c-3.1,0-4.4-0.7-4.4-3.2L15.6,41.1C15.7,41.1,15.6,41.1,15.6,41.1z M32.9,48.3h4.8v1.4h-4.8V48.3z M40.2,49.6h1.6v0.9
		c0,1.2,0.6,1.8,2.7,1.8h5.2c2.4,0,3.1-0.5,3.1-2.3c0-1.6-0.6-2-2.7-2h-3.2c-5.1,0-6.8-0.3-6.8-3.6c0-2.8,1.7-3.5,5.1-3.5h3.6
		c4.2,0,5.2,1.1,5.2,3.3v0.5h-1.6c0-2-0.2-2.3-4.6-2.3H46c-3.2,0-4.4,0.2-4.4,2.2c0,1.5,0.5,2,3.1,2h5c3.3,0,4.6,0.9,4.6,3v0.8
		c0,3-2.5,3.3-5,3.3h-4.7c-2.4,0-4.6-0.4-4.6-3.1v-1C40,49.6,40.2,49.6,40.2,49.6z M57.1,41.1h1.7v5.3H70v-5.3h1.7v12.4H70v-5.7
		H58.8v5.7h-1.7C57.1,53.5,57.1,41.1,57.1,41.1z M74.6,41.1h1.7v12.4h-1.7V41.1z M79.2,41.1h2.5L93,52V41.1h1.7v12.4h-2.5L80.9,42.7
		v10.9h-1.7L79.2,41.1L79.2,41.1z M97.7,41.1h12.2v1.4H99.4v4h10.1v1.4H99.4v4.3h10.5v1.4H97.7V41.1z M120.7,41.1h11.8v1.4h-10.1v4
		h9.7v1.4h-9.7v5.7h-1.7V41.1z M135,41.1h1.7v9.3c0,1.2,0.4,1.9,2.7,1.9h5.8c2.3,0,2.7-0.7,2.7-1.9v-9.3h1.7v9.3
		c0,2.5-1.3,3.2-4.4,3.2h-5.7c-3.1,0-4.4-0.7-4.4-3.2v-9.3C135.1,41.1,135,41.1,135,41.1z M152.4,41.1h2.5L166.2,52V41.1h1.7v12.4
		h-2.5l-11.3-10.8v10.9h-1.7V41.1z M170.8,41.1h10c4.2,0,5.3,1.3,5.3,6.2c0,4.6-1.1,6.2-5.3,6.2h-10V41.1z M184.4,46.7
		c0-3.6-1.1-4.2-3.2-4.2h-8.8v9.7h8.5c2,0,3.4-0.4,3.4-4.2v-1.3H184.4z"/>
</g>
</svg>
